<svg width="93" height="25" viewBox="0 0 93 25" fill="none" xmlns="http://www.w3.org/2000/svg">
<path d="M91.6291 16.1859L92.8077 13.8636H86.527C86.0469 13.8163 85.5608 13.8528 85.0967 13.971C84.6326 14.0893 84.1997 14.2869 83.8227 14.5526C83.4456 14.8184 83.132 15.1469 82.8997 15.5195C82.6674 15.8921 82.5212 16.3014 82.4692 16.7238C82.4544 16.8547 82.4544 16.9866 82.4692 17.1175C82.4119 17.8882 82.705 18.6474 83.2841 19.2281C83.8633 19.8087 84.6809 20.1633 85.5573 20.2138C85.7509 20.2269 85.9454 20.2269 86.1391 20.2138H88.9289C89.1854 20.1955 89.44 20.2662 89.638 20.4109C89.836 20.5556 89.9617 20.7627 89.9881 20.9879V21.0666C89.9881 21.2905 89.888 21.5055 89.7094 21.6651C89.5307 21.8247 89.2879 21.916 89.0333 21.9194H82.8272V24.2417H88.8991C89.8719 24.3299 90.8448 24.0758 91.6053 23.5349C92.3657 22.994 92.8516 22.2104 92.9569 21.3553C93.0501 20.5516 92.7945 19.7466 92.2411 19.1018C91.6877 18.4569 90.8776 18.0199 89.9732 17.8784C89.7599 17.8588 89.5449 17.8588 89.3317 17.8784H86.527C86.3996 17.8892 86.271 17.8778 86.1486 17.8447C86.0262 17.8116 85.9125 17.7575 85.814 17.6855C85.7156 17.6135 85.6343 17.5251 85.5748 17.4254C85.5154 17.3257 85.479 17.2165 85.4678 17.1044C85.4608 17.0785 85.4608 17.0515 85.4678 17.0256C85.4677 16.8017 85.5678 16.5868 85.7465 16.4272C85.9251 16.2677 86.168 16.1762 86.4226 16.1728H91.6142L91.6291 16.1859ZM74.7116 17.0388C74.7096 16.9274 74.7327 16.8168 74.7798 16.7134C74.8269 16.61 74.897 16.5159 74.9858 16.4365C75.0747 16.3571 75.1807 16.2941 75.2975 16.2511C75.4143 16.2081 75.5396 16.1859 75.6663 16.1859H80.843L82.0216 13.8636H75.8155C75.3354 13.8163 74.8493 13.8528 74.3852 13.971C73.9211 14.0893 73.4882 14.2869 73.1112 14.5526C72.7342 14.8184 72.4205 15.1469 72.1882 15.5195C71.956 15.8921 71.8096 16.3014 71.7576 16.7238C71.7428 16.8547 71.7428 16.9866 71.7576 17.1175C71.7293 17.5002 71.7872 17.8839 71.928 18.2468C72.0688 18.6098 72.2896 18.9448 72.5779 19.2325C72.8662 19.5201 73.2163 19.7549 73.6081 19.9233C73.9998 20.0917 74.4255 20.1904 74.8607 20.2138C75.0494 20.2269 75.2389 20.2269 75.4276 20.2138H78.2174C78.3448 20.203 78.4734 20.2145 78.5958 20.2476C78.7182 20.2807 78.832 20.3348 78.9304 20.4067C79.0289 20.4787 79.1101 20.5672 79.1695 20.6669C79.229 20.7667 79.2654 20.8757 79.2766 20.9879V21.0666C79.2806 21.1773 79.2592 21.2877 79.2138 21.391C79.1684 21.4943 79.0998 21.5886 79.0121 21.6681C78.9244 21.7477 78.8194 21.8109 78.7034 21.8541C78.5874 21.8973 78.4627 21.9195 78.3367 21.9194H72.1158V24.2417H78.1875C79.1603 24.3299 80.1334 24.0758 80.8938 23.5349C81.6542 22.994 82.1401 22.2104 82.2454 21.3553C82.2454 21.1978 82.2454 21.0404 82.2454 20.883C82.2948 20.1382 82.0098 19.4062 81.4518 18.8443C80.8939 18.2824 80.1074 17.9356 79.2617 17.8784C79.0484 17.8588 78.8335 17.8588 78.6202 17.8784H75.8304C75.703 17.8892 75.5744 17.8778 75.452 17.8447C75.3296 17.8116 75.2159 17.7575 75.1174 17.6855C75.0189 17.6135 74.9376 17.5251 74.8782 17.4254C74.8188 17.3257 74.7824 17.2165 74.7712 17.1044V17.0256L74.7116 17.0388ZM61.1655 24.2548H70.7581V21.9194H64.1492V20.122H70.6239V17.8654H64.1492V16.1859H70.7581V13.8636H61.1655V24.2548ZM60.6881 24.2548L56.869 20.4762C57.7409 20.3532 58.5332 19.9578 59.1005 19.3625C59.6677 18.7672 59.9719 18.0121 59.9571 17.2355C59.9853 16.3712 59.6226 15.5323 58.9487 14.9028C58.2747 14.2732 57.3445 13.9042 56.3618 13.8768H49.3351V24.2417H52.3188V20.5681H53.4676L57.0033 24.2417L60.6881 24.2548ZM55.5711 18.3377H52.3188V16.1859H55.5711C55.8952 16.1525 56.2212 16.233 56.4783 16.4099C56.7353 16.5868 56.9025 16.8458 56.9435 17.1305C56.9435 17.1305 56.9435 17.2093 56.9435 17.2618C56.9435 17.8784 56.4662 18.3377 55.5561 18.3377H55.5711ZM48.1118 17.3798C48.1399 16.9434 48.0694 16.5064 47.9042 16.0941C47.739 15.6818 47.4826 15.3024 47.1496 14.9779C46.8167 14.6533 46.4138 14.39 45.9644 14.2033C45.5149 14.0165 45.0279 13.91 44.5313 13.8899H37.2959V24.2548H40.2796V20.8698H43.8153C44.323 20.9056 44.8338 20.8528 45.3182 20.7144C45.8027 20.576 46.2512 20.3547 46.638 20.0633C47.0248 19.7719 47.3423 19.4161 47.5722 19.0163C47.8021 18.6166 47.9398 18.1808 47.9775 17.7341C47.9849 17.6161 47.9849 17.4978 47.9775 17.3798H48.1118ZM45.1281 17.3798C45.1361 17.5263 45.1112 17.6728 45.0548 17.8108C44.9984 17.9488 44.9115 18.0757 44.7993 18.1841C44.6871 18.2926 44.5516 18.3805 44.4007 18.4429C44.2497 18.5052 44.0863 18.5408 43.9197 18.5475H40.2796V16.1859H43.6064C43.946 16.1641 44.2819 16.2605 44.5414 16.4544C44.801 16.6483 44.9634 16.9241 44.9938 17.2224V17.3668L45.1281 17.3798ZM37.1616 24.2417L32.4324 18.9937L37.1318 13.8505H33.4767L30.7019 17.0388L27.927 13.8505H24.1825L28.8967 19.0986L24.1974 24.2679H27.8524L30.6273 21.0535L33.4171 24.2679L37.1616 24.2417ZM14.3512 24.2417H23.8692V21.9063H17.2603V20.122H23.7051V17.8654H17.2603V16.1859H23.8692V13.8636H14.2766V24.2286L14.3512 24.2417Z" fill="#393E46"/>
<path d="M91.2566 10.3867V0.0357702H88.2729V6.45097L83.5437 0.0357702H79.7545V10.3867H82.7382V3.7222L87.5867 10.3867H91.2566ZM76.1143 10.3867H79.5008L74.4583 0.0357702H70.5795L65.5371 10.3867H68.8341L69.7889 8.27444H75.1446L76.1293 10.3867H76.1143ZM74.1003 6.01802H70.8331L72.4593 2.47588L74.1003 6.01802ZM64.463 2.42343H67.6257V0.0357702H64.2392C63.5382 -0.00879912 62.8342 0.0690474 62.1677 0.264856C61.5011 0.460664 60.8851 0.77054 60.3554 1.17663C59.8256 1.58273 59.3925 2.07701 59.081 2.63098C58.7695 3.18495 58.5857 3.7877 58.5403 4.40441C58.5179 4.6489 58.5179 4.89458 58.5403 5.13907V5.28336C58.5403 8.45815 60.6289 10.3867 64.0154 10.3867H64.2541L65.4774 8.06457H64.5077C63.7668 8.10427 63.0381 7.88551 62.4795 7.45571C61.9209 7.02591 61.5776 6.41974 61.524 5.76875C61.5091 5.60722 61.5091 5.44489 61.524 5.28336V5.13907C61.4847 4.8186 61.5176 4.49446 61.6208 4.18517C61.724 3.87589 61.8954 3.58747 62.1254 3.33649C62.3554 3.08551 62.6394 2.87684 62.9611 2.72242C63.2829 2.568 63.6361 2.4709 64.0005 2.43656L64.463 2.42343ZM54.1095 10.3867H57.0932V0.0357702H54.1095V10.3867ZM53.6321 10.3867L49.813 6.60839C50.6863 6.48798 51.4803 6.09334 52.0481 5.49755C52.6159 4.90176 52.919 4.14515 52.9011 3.36796C52.915 2.93894 52.8326 2.51177 52.6586 2.11075C52.4847 1.70974 52.2227 1.3428 51.8874 1.0309C51.5521 0.719007 51.1502 0.468208 50.7047 0.292961C50.2592 0.117714 49.7787 0.0213981 49.2908 0.00950663C49.132 -0.00316888 48.9722 -0.00316888 48.8134 0.00950663H42.2791V10.3604H45.2628V6.6871H46.4115L49.9472 10.3604L53.6321 10.3867ZM48.5151 4.46999H45.2628V2.35785H48.5151C48.6748 2.33946 48.837 2.34898 48.9926 2.38588C49.1481 2.42278 49.2938 2.4863 49.4214 2.57285C49.5489 2.65939 49.6557 2.76722 49.7357 2.89017C49.8157 3.01312 49.8673 3.14872 49.8876 3.28925C49.881 3.33279 49.881 3.37695 49.8876 3.42049C49.8876 4.01084 49.4102 4.46999 48.5001 4.46999H48.5151ZM30.9858 10.3867H40.5784V8.06457H33.9695V6.3066H40.4143V4.03704H33.9695V2.35785H40.5784V0.0357702H30.9858V10.3867ZM26.0328 10.3867H29.0166V0.0357702H24.3172L21.6915 6.59526L19.051 0.0357702H14.3069V10.3867H17.2906V2.72514L20.3936 10.3867H23.0043L26.0925 2.72514V10.3867H26.0328ZM10.5921 10.3867H13.9637L8.92125 0.0226384H5.04247L0 10.3867H3.29703L4.25174 8.27444H9.60753L10.5921 10.3867ZM8.56322 6.01802H5.29606L6.93715 2.46275L8.56322 6.01802Z" fill="#393E46"/>
</svg>
