<svg width="223" height="64" viewBox="0 0 223 64" fill="none" xmlns="http://www.w3.org/2000/svg">
<path d="M219.77 42.3532L222.597 36.4001H207.533C206.381 36.2786 205.216 36.3723 204.103 36.6753C202.989 36.9784 201.951 37.4851 201.047 38.1663C200.143 38.8475 199.39 39.6897 198.833 40.6448C198.276 41.6 197.925 42.6491 197.801 43.732C197.765 44.0675 197.765 44.4057 197.801 44.7412C197.663 46.7169 198.366 48.663 199.755 50.1515C201.144 51.64 203.105 52.5489 205.207 52.6785C205.672 52.7121 206.138 52.7121 206.603 52.6785H213.294C213.909 52.6314 214.52 52.8128 214.995 53.1837C215.47 53.5546 215.771 54.0854 215.834 54.6627V54.8645C215.834 55.4385 215.594 55.9897 215.166 56.3987C214.737 56.8078 214.155 57.0419 213.544 57.0507H198.659V63.0038H213.222C215.556 63.23 217.889 62.5786 219.713 61.192C221.537 59.8055 222.702 57.7965 222.955 55.6045C223.179 53.5443 222.565 51.4808 221.238 49.8278C219.911 48.1748 217.968 47.0545 215.799 46.6917C215.287 46.6415 214.771 46.6415 214.26 46.6917H207.533C207.227 46.7195 206.919 46.6902 206.625 46.6053C206.332 46.5204 206.059 46.3817 205.823 46.1972C205.587 46.0127 205.392 45.7861 205.249 45.5305C205.107 45.2748 205.019 44.995 204.992 44.7075C204.976 44.6412 204.976 44.5721 204.992 44.5057C204.992 43.9317 205.232 43.3807 205.661 42.9717C206.089 42.5626 206.672 42.3283 207.283 42.3195H219.734L219.77 42.3532ZM179.194 44.5394C179.189 44.2539 179.245 43.9704 179.358 43.7053C179.471 43.4403 179.639 43.1989 179.852 42.9955C180.065 42.792 180.319 42.6305 180.599 42.5202C180.88 42.41 181.18 42.3531 181.484 42.3532H193.9L196.727 36.4001H181.842C180.69 36.2786 179.524 36.3723 178.411 36.6753C177.298 36.9784 176.26 37.4851 175.356 38.1663C174.451 38.8475 173.699 39.6897 173.142 40.6448C172.585 41.6 172.234 42.6491 172.109 43.732C172.074 44.0675 172.074 44.4057 172.109 44.7412C172.041 45.7221 172.18 46.7058 172.518 47.6362C172.855 48.5666 173.385 49.4253 174.077 50.1628C174.768 50.9002 175.608 51.502 176.547 51.9337C177.487 52.3654 178.508 52.6186 179.552 52.6785C180.004 52.7121 180.459 52.7121 180.912 52.6785H187.603C187.908 52.6507 188.217 52.6802 188.51 52.7651C188.804 52.85 189.077 52.9885 189.313 53.173C189.549 53.3575 189.744 53.5843 189.886 53.8399C190.029 54.0956 190.116 54.3752 190.143 54.6627V54.8645C190.153 55.1484 190.102 55.4312 189.993 55.6961C189.884 55.961 189.719 56.2026 189.509 56.4065C189.299 56.6105 189.047 56.7725 188.768 56.8832C188.49 56.9939 188.191 57.0509 187.889 57.0507H172.968V63.0038H187.531C189.864 63.23 192.198 62.5786 194.022 61.192C195.846 59.8055 197.011 57.7965 197.264 55.6045C197.264 55.2009 197.264 54.7974 197.264 54.3938C197.382 52.4847 196.699 50.6081 195.36 49.1678C194.022 47.7275 192.136 46.8383 190.107 46.6917C189.596 46.6415 189.08 46.6415 188.569 46.6917H181.878C181.572 46.7195 181.264 46.6902 180.97 46.6053C180.677 46.5204 180.404 46.3817 180.167 46.1972C179.931 46.0127 179.736 45.7861 179.594 45.5305C179.451 45.2748 179.364 44.995 179.337 44.7075V44.5057L179.194 44.5394ZM146.704 63.0375H169.712V57.0507H153.861V52.443H169.39V46.6583H153.861V42.3532H169.712V36.4001H146.704V62.9701V63.0375ZM145.559 63.0375L136.399 53.3512C138.491 53.0358 140.391 52.0221 141.751 50.4962C143.112 48.9702 143.841 47.0344 143.806 45.0437C143.874 42.8281 143.004 40.6777 141.387 39.0638C139.771 37.4498 137.54 36.504 135.183 36.4337H118.33V63.0038H125.486V53.5866H128.241L136.721 63.0038L145.559 63.0375ZM133.286 47.869H125.486V42.3532H133.286C134.064 42.2675 134.846 42.4738 135.462 42.9273C136.079 43.3808 136.48 44.0447 136.578 44.7746C136.578 44.7746 136.578 44.9765 136.578 45.1111C136.578 46.6918 135.433 47.869 133.251 47.869H133.286ZM115.396 45.4137C115.463 44.2949 115.294 43.1746 114.898 42.1177C114.501 41.0608 113.886 40.0883 113.088 39.2563C112.289 38.4243 111.323 37.7494 110.245 37.2707C109.167 36.7919 107.999 36.519 106.808 36.4674H89.4539V63.0375H96.6102V54.3601H105.09C106.308 54.4519 107.533 54.3165 108.695 53.9617C109.857 53.6068 110.933 53.0396 111.861 52.2926C112.788 51.5455 113.55 50.6334 114.101 49.6087C114.653 48.584 114.983 47.467 115.073 46.3218C115.091 46.0193 115.091 45.7161 115.073 45.4137H115.396ZM108.239 45.4137C108.258 45.7892 108.199 46.1647 108.063 46.5185C107.928 46.8723 107.72 47.1974 107.451 47.4755C107.181 47.7535 106.857 47.9789 106.495 48.1387C106.132 48.2986 105.741 48.3898 105.341 48.407H96.6102V42.3532H104.589C105.404 42.2971 106.21 42.5442 106.832 43.0412C107.455 43.5383 107.844 44.2454 107.917 45.0101V45.3802L108.239 45.4137ZM89.1318 63.0038L77.7891 49.5506L89.0604 36.3664H80.2939L73.6386 44.5394L66.983 36.3664H58.002L69.3089 49.8196L58.0376 63.0709H66.8042L73.4597 54.831L80.1508 63.0709L89.1318 63.0038ZM34.4219 63.0038H57.2505V57.017H41.3994V52.443H56.857V46.6583H41.3994V42.3532H57.2505V36.4001H34.243V62.9701L34.4219 63.0038Z" fill="white"/>
<path d="M218.876 27.4877V0.951444H211.719V17.3979L200.377 0.951444H191.288V27.4877H198.444V10.4022L210.073 27.4877H218.876ZM182.557 27.4877H190.68L178.586 0.951444H169.282L157.188 27.4877H165.096L167.386 22.0727H180.232L182.593 27.4877H182.557ZM177.727 16.2879H169.891L173.791 7.20707L177.727 16.2879ZM154.612 7.07262H162.198V0.951444H154.075C152.394 0.837183 150.706 1.03676 149.107 1.53874C147.508 2.04073 146.031 2.83515 144.76 3.87624C143.49 4.91733 142.451 6.1845 141.704 7.60469C140.956 9.02489 140.516 10.5701 140.407 12.1512C140.353 12.778 140.353 13.4078 140.407 14.0346V14.4045C140.407 22.5436 145.416 27.4877 153.538 27.4877H154.111L157.045 21.5346H154.719C152.942 21.6364 151.195 21.0756 149.855 19.9737C148.515 18.8718 147.692 17.3178 147.563 15.6489C147.527 15.2348 147.527 14.8186 147.563 14.4045V14.0346C147.469 13.213 147.548 12.382 147.795 11.5891C148.043 10.7962 148.454 10.0568 149.006 9.41339C149.557 8.76997 150.238 8.23501 151.01 7.83912C151.782 7.44323 152.629 7.19431 153.503 7.10628L154.612 7.07262ZM129.78 27.4877H136.936V0.951444H129.78V27.4877ZM128.635 27.4877L119.475 17.8014C121.569 17.4928 123.474 16.481 124.836 14.9536C126.197 13.4262 126.924 11.4865 126.881 9.49407C126.915 8.3942 126.717 7.29908 126.3 6.27101C125.883 5.24294 125.254 4.30223 124.45 3.50263C123.646 2.70304 122.682 2.06007 121.613 1.6108C120.545 1.16152 119.392 0.914599 118.222 0.884113C117.841 0.851617 117.458 0.851617 117.077 0.884113H101.405V27.4203H108.561V18.0032H111.316L119.797 27.4203L128.635 27.4877ZM116.362 12.3193H108.561V6.90449H116.362C116.745 6.85733 117.134 6.88175 117.507 6.97634C117.88 7.07093 118.229 7.23379 118.535 7.45566C118.841 7.67753 119.097 7.95398 119.289 8.26918C119.481 8.58437 119.605 8.93201 119.653 9.29228C119.638 9.4039 119.638 9.51711 119.653 9.62873C119.653 11.1422 118.508 12.3193 116.326 12.3193H116.362ZM74.3183 27.4877H97.3258V21.5346H81.4746V17.0278H96.9323V11.2094H81.4746V6.90449H97.3258V0.951444H74.3183V27.4877ZM62.4388 27.4877H69.5951V0.951444H58.3239L52.0263 17.7678L45.6931 0.951444H34.3146V27.4877H41.4709V7.8461L48.9133 27.4877H55.1751L62.5819 7.8461V27.4877H62.4388ZM25.4048 27.4877H33.4915L21.3973 0.917779H12.0942L0 27.4877H7.9078L10.1977 22.0727H23.0433L25.4048 27.4877ZM20.5386 16.2879H12.7024L16.6385 7.17341L20.5386 16.2879Z" fill="white"/>
</svg>
