<svg width="75" height="27" viewBox="0 0 75 27" fill="none" xmlns="http://www.w3.org/2000/svg">
<path d="M13.5308 3.45624C13.0975 3.93866 12.5429 4.3262 11.9105 4.58816C11.2782 4.85013 10.5853 4.97956 9.88647 4.96612C9.84423 4.36342 9.93834 3.75908 10.1632 3.18853C10.3881 2.61799 10.7393 2.09254 11.1966 1.64212C12.1152 0.705137 13.4102 0.116762 14.8107 0C14.9077 1.25025 14.4488 2.48456 13.5308 3.44298V3.45624ZM14.7956 5.2044C12.7778 5.09846 11.0611 6.21088 10.1124 6.21088C9.16368 6.21088 7.67288 5.25745 6.07665 5.28394C5.04667 5.30227 4.03987 5.55604 3.15533 6.02045C2.27079 6.48485 1.53894 7.14389 1.0319 7.93253C-1.13656 11.2168 0.474726 16.0769 2.53778 18.7519C3.56177 20.0762 4.79661 21.533 6.40789 21.4801C8.01918 21.4271 8.56135 20.5926 10.4136 20.5926C12.2658 20.5926 12.8079 21.48 14.4342 21.4536C16.0606 21.4271 17.1599 20.1293 18.1989 18.805C18.9179 17.8647 19.4807 16.839 19.8704 15.759C18.9053 15.3844 18.0836 14.7728 17.504 13.9976C16.9244 13.2224 16.6114 12.3165 16.6027 11.3888C16.617 10.5638 16.8673 9.75543 17.3305 9.03794C17.7937 8.32047 18.4549 7.71719 19.2531 7.28364C18.7388 6.64524 18.0632 6.12044 17.2793 5.75048C16.4954 5.38052 15.6247 5.17536 14.7354 5.15138L14.7956 5.2044ZM26.3608 1.45653V21.321H29.8544V14.5673H34.7034C35.643 14.6119 36.5834 14.493 37.4708 14.2175C38.3581 13.9419 39.1748 13.5153 39.8742 12.9617C40.5737 12.4081 41.142 11.7385 41.5468 10.9914C41.9515 10.2443 42.1846 9.43439 42.2328 8.60794C42.2478 8.41393 42.2478 8.219 42.2328 8.025C42.2794 7.20807 42.142 6.39127 41.8286 5.62115C41.5151 4.85104 41.0319 4.14279 40.4064 3.53739C39.781 2.93199 39.0256 2.44148 38.1839 2.09346C37.3422 1.74545 36.4306 1.5469 35.5015 1.50956C35.2758 1.49632 35.0494 1.49632 34.8238 1.50956L26.3608 1.45653ZM29.8544 4.10513H33.8902C36.9019 4.10513 38.6639 5.53537 38.6639 8.07802C38.6639 10.6207 36.9321 12.0509 33.8752 12.0509H29.9147L29.8544 4.10513ZM48.6328 21.5066C49.6738 21.5285 50.7023 21.304 51.6109 20.8567C52.5195 20.4094 53.2749 19.7555 53.7979 18.9637H53.8732V21.3475H57.1109V11.4816C57.1109 8.62108 54.5057 6.76698 50.5 6.76698C46.7805 6.76698 44.0398 8.64763 43.9344 11.2168H47.0817C47.2509 10.5784 47.6833 10.0178 48.2953 9.64351C48.9072 9.26925 49.6552 9.10789 50.3946 9.19055C52.548 9.19055 53.7376 10.0644 53.7376 11.6801V12.7793L49.3706 13.0044C45.3048 13.2163 43.1061 14.6865 43.1061 17.2291C43.1061 19.7718 45.3801 21.5198 48.6328 21.5198V21.5066ZM49.5815 19.1493C47.7142 19.1493 46.5697 18.3547 46.5697 17.1496C46.5697 15.9445 47.7141 15.1763 49.8977 15.0704L53.7828 14.8453V15.9708C53.7635 16.4103 53.6455 16.8421 53.4357 17.2414C53.2259 17.6407 52.9285 17.9999 52.5604 18.2977C52.1924 18.5955 51.761 18.8263 51.2911 18.977C50.8212 19.1277 50.322 19.1953 49.8224 19.1758H49.6266L49.5815 19.1493ZM61.4327 26.7375C64.8511 26.7375 66.4623 25.5986 67.8628 22.129L74.0068 6.96582H70.4529L66.3268 18.6989L62.2007 6.97908H58.5264L64.4596 21.4138L64.1433 22.2877C64.0351 22.9047 63.6631 23.4621 63.1034 23.8461C62.5437 24.23 61.8383 24.4116 61.1315 24.3537C60.8605 24.3537 60.3184 24.3537 60.1075 24.3537V26.7375C60.5467 26.7903 60.9895 26.8169 61.4327 26.817V26.7375Z" fill="#393E46"/>
</svg>
