<svg width="45" height="18" viewBox="0 0 45 18" fill="none" xmlns="http://www.w3.org/2000/svg">
<path d="M8.06049 2.32824C7.80242 2.63179 7.47201 2.87562 7.0953 3.04046C6.7186 3.20529 6.30584 3.28673 5.88953 3.27827C5.86437 2.89904 5.92043 2.51879 6.05439 2.1598C6.18835 1.80081 6.39755 1.4702 6.66998 1.18679C7.21722 0.59724 7.98868 0.227032 8.82299 0.153564C8.88077 0.940226 8.6074 1.71686 8.06049 2.3199V2.32824ZM8.81401 3.4282C7.61192 3.36154 6.58927 4.06148 6.02411 4.06148C5.45896 4.06148 4.57086 3.46157 3.61996 3.47824C3.00638 3.48978 2.40662 3.64945 1.87968 3.94166C1.35275 4.23386 0.916771 4.64853 0.61472 5.14475C-0.677069 7.21122 0.282802 10.2692 1.5118 11.9524C2.12181 12.7856 2.85742 13.7022 3.81729 13.6689C4.77716 13.6356 5.10014 13.1105 6.20354 13.1105C7.30694 13.1105 7.62987 13.6689 8.59872 13.6522C9.56756 13.6356 10.2224 12.819 10.8414 11.9857C11.2697 11.3941 11.605 10.7487 11.8371 10.0692C11.2622 9.83348 10.7727 9.44866 10.4274 8.96091C10.0821 8.47316 9.89569 7.90316 9.89051 7.31943C9.89901 6.80036 10.0481 6.29172 10.324 5.84028C10.6 5.38884 10.9939 5.00926 11.4694 4.73646C11.163 4.33478 10.7605 4.00457 10.2935 3.77179C9.82658 3.53901 9.30786 3.40992 8.77814 3.39483L8.81401 3.4282ZM15.7035 1.07002V13.5688H17.7848V9.31936H20.6734C21.2331 9.34744 21.7934 9.2726 22.3219 9.09925C22.8505 8.92589 23.3371 8.65744 23.7537 8.30912C24.1704 7.9608 24.509 7.53948 24.7501 7.06941C24.9912 6.59934 25.1301 6.08972 25.1588 5.56972C25.1677 5.44765 25.1677 5.325 25.1588 5.20293C25.1865 4.68892 25.1047 4.17498 24.918 3.69042C24.7312 3.20586 24.4433 2.76023 24.0708 2.3793C23.6982 1.99838 23.2482 1.68975 22.7468 1.47078C22.2453 1.25181 21.7023 1.12688 21.1488 1.10338C21.0144 1.09505 20.8795 1.09505 20.7451 1.10338L15.7035 1.07002ZM17.7848 2.73653H20.1889C21.9831 2.73653 23.0327 3.63644 23.0327 5.23629C23.0327 6.83614 22.0011 7.73605 20.18 7.73605H17.8207L17.7848 2.73653ZM28.9713 13.6856C29.5915 13.6994 30.2042 13.5581 30.7454 13.2767C31.2867 12.9953 31.7367 12.5838 32.0483 12.0856H32.0931V13.5855H34.0219V7.37781C34.0219 5.57798 32.4699 4.41138 30.0837 4.41138C27.8679 4.41138 26.2353 5.59469 26.1725 7.2112H28.0473C28.1481 6.80953 28.4057 6.45679 28.7703 6.2213C29.1348 5.98582 29.5804 5.88428 30.0209 5.9363C31.3037 5.9363 32.0124 6.48615 32.0124 7.50272V8.19438L29.4109 8.33597C26.9888 8.46929 25.679 9.39436 25.679 10.9942C25.679 12.5941 27.0336 13.6939 28.9713 13.6939V13.6856ZM29.5365 12.2024C28.4241 12.2024 27.7423 11.7024 27.7423 10.9442C27.7423 10.1859 28.4241 9.70256 29.7248 9.6359L32.0393 9.49431V10.2025C32.0278 10.479 31.9575 10.7507 31.8325 11.0019C31.7075 11.2532 31.5304 11.4791 31.3111 11.6665C31.0918 11.8539 30.8349 11.9991 30.555 12.094C30.275 12.1888 29.9777 12.2314 29.68 12.2191H29.5634L29.5365 12.2024ZM36.5965 16.9769C38.6328 16.9769 39.5927 16.2603 40.4269 14.0772L44.087 4.53649H41.9699L39.512 11.919L37.054 4.54483H34.8651L38.3996 13.6272L38.2112 14.1771C38.1467 14.5653 37.9252 14.916 37.5917 15.1576C37.2583 15.3992 36.8381 15.5135 36.417 15.477C36.2556 15.477 35.9326 15.477 35.807 15.477V16.9769C36.0687 17.0101 36.3324 17.0269 36.5965 17.027V16.9769Z" fill="white"/>
</svg>
