<svg width="65" height="24" viewBox="0 0 65 24" fill="none" xmlns="http://www.w3.org/2000/svg">
<path d="M27.5346 11.4211V18.5201H25V1.00137H31.7927C32.6033 0.985284 33.4095 1.11094 34.1644 1.37112C34.9193 1.6313 35.6078 2.02068 36.1902 2.51684C36.7439 2.96958 37.1907 3.51385 37.5051 4.11855C37.8195 4.72326 37.9952 5.37657 38.0223 6.04104C38.0493 6.70552 37.9272 7.36835 37.6629 7.99129C37.3985 8.61422 36.9972 9.1852 36.4818 9.67163L36.1902 9.92793C35.6066 10.4211 34.9172 10.8072 34.1622 11.0636C33.4072 11.32 32.6017 11.4414 31.7927 11.4211H27.5346ZM27.5346 3.15214V9.27032H31.8307C32.5046 9.26774 33.163 9.09271 33.7258 8.76671C34.2886 8.4407 34.7314 7.97781 35.0001 7.43435C35.2688 6.89089 35.3518 6.29038 35.2391 5.70612C35.1264 5.12186 34.8228 4.57927 34.3653 4.14413C34.0409 3.84081 33.6476 3.6007 33.211 3.43945C32.7744 3.2782 32.3042 3.1993 31.8307 3.20791L27.5346 3.15214Z" fill="#393E46"/>
<path d="M43.8953 6.13929C45.5268 6.06118 47.1296 6.54058 48.369 7.47699C48.9252 7.94704 49.3601 8.51649 49.6443 9.14721C49.9286 9.77792 50.0555 10.455 50.0164 11.1325V18.5223H47.5706V16.8504H47.4564C47.0128 17.4859 46.3901 18.0097 45.6484 18.371C44.9067 18.7323 44.0714 18.9189 43.2236 18.9125C41.8314 18.9595 40.4713 18.5368 39.4217 17.731C38.9347 17.3737 38.5452 16.9248 38.282 16.4175C38.0188 15.9101 37.8886 15.3571 37.901 14.7995C37.8758 14.2287 38.0078 13.6613 38.2859 13.1451C38.5639 12.6289 38.9797 12.1793 39.4978 11.8348C40.7371 11.0493 42.2427 10.6564 43.7686 10.7203C45.0867 10.6742 46.3961 10.9275 47.5706 11.4558V10.9766C47.5754 10.5961 47.4834 10.2195 47.3014 9.87429C47.1194 9.52909 46.8519 9.22405 46.5186 8.98149C45.8397 8.44778 44.9579 8.15746 44.0474 8.16788C43.3741 8.15155 42.7074 8.28864 42.1122 8.56598C41.5171 8.84331 41.0137 9.25137 40.6509 9.75048L38.4078 8.51346C39.0144 7.73732 39.8377 7.11121 40.7987 6.69548C41.7596 6.27976 42.826 6.08822 43.8953 6.13929ZM40.5877 14.8441C40.5796 15.132 40.653 15.4173 40.8012 15.6741C40.9494 15.9309 41.1677 16.1512 41.4367 16.3154C41.9989 16.7063 42.6971 16.915 43.4137 16.9062C44.4963 16.9056 45.5348 16.5288 46.3032 15.8583C46.6994 15.5467 47.0169 15.1656 47.2352 14.7394C47.4535 14.3132 47.5677 13.8514 47.5706 13.384C46.5985 12.7739 45.4164 12.4786 44.2248 12.5481C43.3224 12.5276 42.4356 12.7578 41.6902 13.2057C41.3736 13.3802 41.1115 13.6214 40.9279 13.9075C40.7442 14.1936 40.6446 14.5156 40.6383 14.8441H40.5877Z" fill="#393E46"/>
<path d="M64.0711 6.51874L55.5169 23.7917H52.8809L56.0492 17.7518L50.4225 6.51874H53.2104L57.2784 15.1329L61.2324 6.51874H64.0711Z" fill="#393E46"/>
<path d="M22.4 10.2643C22.4023 9.57673 22.3345 8.89026 22.1974 8.21334H11.362V12.0921H17.5337C17.408 12.7119 17.141 13.3032 16.749 13.8299C16.357 14.3567 15.848 14.808 15.2525 15.1573V17.6652H18.9657C20.0937 16.7106 20.982 15.559 21.5735 14.2844C22.165 13.0097 22.4465 11.6404 22.4 10.2643Z" fill="#393E46"/>
<path d="M11.362 20.14C14.1555 20.209 16.8741 19.34 18.9657 17.71L15.2779 15.1911C13.7267 16.0646 11.8446 16.3604 10.0455 16.0134C8.24636 15.6664 6.67771 14.7052 5.68451 13.341C5.37658 12.9201 5.12956 12.4671 4.94938 11.9924H1.14749V14.5891C2.09488 16.2581 3.55264 17.6618 5.35701 18.6423C7.16139 19.6228 9.24096 20.1416 11.362 20.14Z" fill="#393E46"/>
<path d="M5.02509 11.9918C4.54322 10.7412 4.54322 9.38594 5.02509 8.13538V5.54946H1.22321C0.418926 6.95106 0 8.49905 0 10.069C0 11.639 0.418926 13.187 1.22321 14.5886L5.02509 11.9918Z" fill="#393E46"/>
<path d="M11.3622 3.99018C12.1716 3.97446 12.9767 4.09906 13.7312 4.35724C14.4858 4.61541 15.1751 5.00192 15.7597 5.4946L19.0294 2.61908C16.9687 0.923305 14.2477 -0.0137656 11.4256 0.000152856C9.29977 -0.00145507 7.21566 0.519382 5.40857 1.50403C3.60148 2.48868 2.14324 3.89795 1.19843 5.57269L5.00032 8.15843C5.43537 6.96768 6.28215 5.92592 7.4226 5.1787C8.56305 4.43148 9.94032 4.01608 11.3622 3.99018Z" fill="#393E46"/>
</svg>
