<svg width="43" height="29" viewBox="0 0 43 29" fill="none" xmlns="http://www.w3.org/2000/svg">
<path d="M7.66952 28.8497V26.9278C7.69233 26.6265 7.57828 26.3296 7.35239 26.1022C7.1265 25.8747 6.80722 25.7354 6.46466 25.7148H6.29849C6.0584 25.7 5.81822 25.7424 5.60324 25.8375C5.38827 25.9327 5.20648 26.0771 5.07701 26.2555C4.95966 26.0824 4.79093 25.9406 4.58892 25.8453C4.38692 25.75 4.15926 25.705 3.93032 25.7148C3.72977 25.705 3.52978 25.7417 3.35041 25.8212C3.17104 25.9007 3.01858 26.0202 2.90827 26.1679V25.7879H2.15211V28.8497H2.91658V27.1543C2.89012 26.967 2.94714 26.7779 3.0757 26.6267C3.20427 26.4755 3.3944 26.3739 3.60625 26.3432H3.76413C4.27099 26.3432 4.52028 26.6282 4.52028 27.147V28.8424H5.32628V27.147C5.30265 26.9576 5.36415 26.7675 5.49765 26.6173C5.63116 26.4671 5.82608 26.3688 6.04087 26.3432H6.15722C6.67239 26.3432 6.91337 26.6355 6.91337 27.147V28.8497H7.66952ZM18.9702 25.7879H17.7321V24.8598H16.9593V25.7879H16.253V26.3944H16.9593V27.7901C16.9593 28.5208 17.2751 28.9227 18.1725 28.9227C18.5066 28.922 18.8341 28.8412 19.1198 28.6889L18.8954 28.1189C18.6933 28.224 18.4652 28.2842 18.2307 28.2943C17.8568 28.2943 17.7321 28.0897 17.7321 27.7828V26.3944H18.9702V25.7879ZM25.4266 25.7148C25.2425 25.7091 25.0602 25.7476 24.8992 25.8261C24.7381 25.9046 24.6045 26.0203 24.5125 26.1605V25.7879H23.7647V28.8497H24.5208V27.1324C24.5208 26.6282 24.7701 26.3432 25.2604 26.3432C25.4226 26.3437 25.5832 26.371 25.734 26.4236L25.9667 25.7952C25.7929 25.7423 25.6104 25.7151 25.4266 25.7148ZM15.6631 26.0363C15.2379 25.8105 14.7469 25.6987 14.2505 25.7148C13.3697 25.7148 12.8047 26.0875 12.8047 26.694C12.8047 27.3005 13.2201 27.4978 14.0012 27.5928L14.3585 27.6366C14.774 27.6878 14.9651 27.7828 14.9651 27.9581C14.9651 28.1335 14.6909 28.3308 14.1342 28.3308C13.7192 28.3399 13.3126 28.2267 12.9792 28.0093L12.6219 28.5281C13.0618 28.7987 13.5893 28.937 14.1259 28.9227C15.1313 28.9227 15.7129 28.5062 15.7129 27.9289C15.7129 27.3516 15.2559 27.1105 14.4998 27.0155L14.1425 26.9643C13.8101 26.9643 13.5525 26.8694 13.5525 26.6648C13.5525 26.4602 13.8018 26.3067 14.2173 26.3067C14.5967 26.3136 14.9681 26.404 15.2975 26.5698L15.6631 26.0363ZM35.9379 25.7148C35.7538 25.7091 35.5715 25.7476 35.4105 25.8261C35.2494 25.9046 35.1158 26.0203 35.0238 26.1605V25.7879H34.276V28.8497H35.0321V27.1324C35.0321 26.6282 35.2814 26.3432 35.7717 26.3432C35.9338 26.3444 36.0943 26.3716 36.2453 26.4236L36.478 25.7952C36.304 25.7431 36.1216 25.7159 35.9379 25.7148ZM26.1827 27.2932C26.1667 27.6988 26.3315 28.0939 26.6419 28.3942C26.9524 28.6945 27.3839 28.8763 27.8446 28.9008H28.0191C28.4714 28.9177 28.9151 28.7876 29.2655 28.5355L28.9082 27.9947C28.6454 28.1713 28.3248 28.2687 27.9941 28.2724C27.857 28.2743 27.7209 28.2524 27.5935 28.2078C27.4661 28.1632 27.35 28.0969 27.2519 28.0126C27.1538 27.9284 27.0756 27.8279 27.0219 27.717C26.9682 27.606 26.9399 27.4868 26.9389 27.3662C26.9348 27.342 26.9348 27.3174 26.9389 27.2932C26.9182 27.052 27.0073 26.8134 27.1864 26.6298C27.3655 26.4463 27.6202 26.3326 27.8944 26.314H27.9858C28.3165 26.3177 28.6371 26.415 28.8998 26.5917L29.2571 26.0509C28.9087 25.7956 28.4637 25.6652 28.0107 25.6855C27.7798 25.6737 27.5484 25.7022 27.33 25.7694C27.1116 25.8366 26.9105 25.9411 26.7382 26.077C26.5659 26.2128 26.426 26.3773 26.3264 26.561C26.2267 26.7446 26.1695 26.9438 26.1578 27.147C26.1536 27.1981 26.1536 27.2494 26.1578 27.3005L26.1827 27.2932ZM33.2706 27.2932V25.8317H32.5144V26.1971C32.3837 26.0528 32.2165 25.9373 32.0261 25.8599C31.8356 25.7825 31.6273 25.7453 31.4176 25.7513C31.1881 25.7513 30.9609 25.7913 30.7491 25.8689C30.5373 25.9466 30.3452 26.0604 30.1837 26.2038C30.0222 26.3472 29.8946 26.5172 29.8083 26.7042C29.722 26.8912 29.6787 27.0914 29.6809 27.2932C29.6698 27.4948 29.7039 27.6963 29.7814 27.8862C29.8589 28.0762 29.9783 28.2509 30.1327 28.4002C30.287 28.5495 30.4734 28.6706 30.681 28.7565C30.8887 28.8424 31.1136 28.8915 31.3428 28.9008H31.4176C31.6273 28.9068 31.8356 28.8697 32.0261 28.7923C32.2165 28.7149 32.3837 28.5994 32.5144 28.4551V28.8277H33.2706V27.2932ZM30.4537 27.2932C30.4376 27.0505 30.5305 26.812 30.7123 26.6289C30.8941 26.4458 31.1503 26.3327 31.4259 26.314H31.509C31.7852 26.312 32.0512 26.4062 32.2488 26.5759C32.4465 26.7456 32.5599 26.9772 32.5643 27.2201C32.5684 27.2444 32.5684 27.269 32.5643 27.2932C32.5744 27.4128 32.5575 27.533 32.5144 27.6469C32.4713 27.7607 32.4029 27.8659 32.3133 27.9563C32.2236 28.0467 32.1144 28.1206 31.992 28.1736C31.8697 28.2266 31.7365 28.2577 31.6004 28.2651H31.5173C31.241 28.267 30.9751 28.1729 30.7774 28.0031C30.5798 27.8334 30.4664 27.6019 30.462 27.359L30.4537 27.2932ZM21.3134 25.6855C21.089 25.6767 20.8648 25.7079 20.6545 25.7773C20.4441 25.8468 20.252 25.953 20.0897 26.0896C19.9273 26.2262 19.7982 26.3904 19.71 26.5721C19.6219 26.7539 19.5766 26.9494 19.5768 27.147V27.2932C19.5494 27.691 19.7016 28.0822 20.0003 28.3819C20.299 28.6815 20.7202 28.8654 21.1722 28.8935H21.3633C21.8833 28.9064 22.391 28.7532 22.7925 28.4624L22.4186 27.9728C22.1296 28.1734 21.773 28.2839 21.4048 28.287C21.1581 28.3059 20.9126 28.2405 20.7192 28.1044C20.5258 27.9684 20.3994 27.7721 20.3662 27.5562H22.9504C22.9504 27.4759 22.9504 27.3882 22.9504 27.3005C22.9721 27.109 22.9507 26.9156 22.8872 26.7313C22.8238 26.5471 22.7196 26.3757 22.5806 26.227C22.4416 26.0784 22.2706 25.9553 22.0774 25.8648C21.8842 25.7744 21.6726 25.7185 21.4547 25.7002L21.3134 25.6855ZM21.3134 26.2774C21.4267 26.2715 21.5401 26.286 21.6468 26.32C21.7534 26.354 21.851 26.4069 21.9335 26.4753C22.016 26.5438 22.0817 26.6264 22.1266 26.7181C22.1714 26.8097 22.1944 26.9084 22.1942 27.0082H20.3911C20.4142 26.8099 20.5225 26.6269 20.694 26.4965C20.8654 26.3661 21.087 26.2982 21.3134 26.3067V26.2774ZM40.2919 27.2932V24.5383H39.5358V26.1386C39.4079 25.9916 39.2411 25.8741 39.05 25.7965C38.8589 25.7188 38.6492 25.6833 38.439 25.6929C37.9762 25.6929 37.5323 25.8545 37.2051 26.1423C36.8779 26.4301 36.694 26.8204 36.694 27.2274C36.6899 27.2516 36.6899 27.2763 36.694 27.3005C36.6817 27.5019 36.7151 27.7035 36.7923 27.8934C36.8695 28.0834 36.9889 28.2579 37.1436 28.4069C37.2983 28.5558 37.4852 28.6762 37.6933 28.761C37.9014 28.8458 38.1266 28.8934 38.3559 28.9008H38.439C38.6495 28.9071 38.8588 28.8693 39.0495 28.7906C39.2402 28.7118 39.4069 28.5943 39.5358 28.4478V28.8205H40.2919V27.2932ZM37.4751 27.2932C37.4591 27.0513 37.5522 26.8136 37.7342 26.6317C37.9162 26.4497 38.1724 26.3382 38.4473 26.3213H38.5304C38.8066 26.3193 39.0726 26.4135 39.2702 26.5832C39.4679 26.753 39.5813 26.9845 39.5857 27.2274C39.5857 27.2274 39.5857 27.2713 39.5857 27.2932C39.5958 27.4132 39.5789 27.5338 39.536 27.6481C39.493 27.7623 39.4247 27.868 39.3351 27.959C39.2456 28.05 39.1365 28.1245 39.014 28.1783C38.8916 28.2321 38.7583 28.2641 38.6218 28.2724H38.5636C38.4272 28.2743 38.2917 28.2526 38.1648 28.2085C38.038 28.1644 37.9222 28.0987 37.8242 28.0152C37.7262 27.9318 37.6479 27.8321 37.5937 27.722C37.5395 27.6119 37.5105 27.4935 37.5083 27.3736L37.4751 27.2932ZM11.9737 27.2932V25.7659H11.1428V26.1386C11.0149 25.9916 10.8482 25.8741 10.6571 25.7965C10.466 25.7188 10.2562 25.6833 10.046 25.6929C9.8169 25.6919 9.58989 25.731 9.37815 25.8078C9.1664 25.8847 8.97415 25.9978 8.81256 26.1406C8.65097 26.2834 8.52327 26.453 8.43688 26.6396C8.35049 26.8261 8.30712 27.026 8.30933 27.2274V27.3005C8.28898 27.7071 8.45228 28.1043 8.76359 28.4054C9.07491 28.7066 9.509 28.8873 9.9712 28.9081H10.046C10.2568 28.9163 10.4668 28.8793 10.6578 28.8004C10.8489 28.7215 11.0153 28.603 11.1428 28.4551V28.8277H11.9737V27.2932ZM9.15687 27.2932C9.14671 27.1736 9.16367 27.0533 9.20675 26.9395C9.24984 26.8257 9.3182 26.7205 9.40787 26.6301C9.49753 26.5397 9.60673 26.4658 9.7291 26.4128C9.85148 26.3598 9.9846 26.3287 10.1208 26.3213H10.2122C10.3489 26.3194 10.4846 26.3414 10.6116 26.3861C10.7385 26.4307 10.8541 26.4972 10.9515 26.5815C11.049 26.6658 11.1263 26.7663 11.1792 26.8772C11.232 26.9881 11.2592 27.1072 11.2592 27.2274V27.2932C11.2774 27.5363 11.1853 27.7759 11.0031 27.9594C10.8209 28.143 10.5634 28.2555 10.287 28.2724H10.2122C10.0751 28.2743 9.93889 28.2524 9.81149 28.2078C9.68409 28.1632 9.568 28.0969 9.46989 28.0126C9.37179 27.9284 9.29362 27.8279 9.23989 27.717C9.18617 27.606 9.15795 27.4868 9.15687 27.3662V27.2932ZM20.0255 20.8773L20.3412 21.1111C18.3683 22.2636 16.0768 22.924 13.7109 23.0219C11.3449 23.1197 8.99307 22.6515 6.90579 21.6669C4.8185 20.6824 3.07392 19.2185 1.85783 17.431C0.641746 15.6435 -0.000330141 13.5994 1.27347e-07 11.5165C1.27347e-07 8.46212 1.3797 5.53287 3.83558 3.37312C6.29147 1.21336 9.62237 1.89767e-05 13.0955 1.89767e-05C15.6748 -0.00266579 18.1968 0.66882 20.3412 1.92919C20.2332 2.00226 20.1252 2.07533 20.0255 2.15571C18.5057 3.32175 17.2875 4.76048 16.4528 6.37511C15.6181 7.98974 15.1862 9.74281 15.1862 11.5165C15.1862 13.2901 15.6181 15.0433 16.4528 16.6579C17.2875 18.2725 18.5057 19.7112 20.0255 20.8773ZM29.2821 1.89767e-05C26.7 -0.00411553 24.1749 0.667433 22.028 1.92919C22.1361 2.00226 22.2441 2.07533 22.3438 2.15571C23.8636 3.32175 25.0818 4.76048 25.9165 6.37511C26.7512 7.98974 27.1831 9.74281 27.1831 11.5165C27.1831 13.2901 26.7512 15.0433 25.9165 16.6579C25.0818 18.2725 23.8636 19.7112 22.3438 20.8773L22.028 21.1111C24.0017 22.263 26.2935 22.9228 28.6597 23.0205C31.0258 23.1181 33.3778 22.6498 35.4655 21.6655C37.5531 20.6812 39.2983 19.2177 40.5155 17.4306C41.7326 15.6434 42.3761 13.5996 42.3776 11.5165C42.3754 8.46271 40.995 5.53459 38.5396 3.37526C36.0842 1.21592 32.7545 0.0019548 29.2821 1.89767e-05ZM21.114 2.49185L20.6154 2.8499C19.1989 3.92894 18.0627 5.26328 17.284 6.76238C16.5053 8.26149 16.1023 9.89031 16.1023 11.5384C16.1023 13.1865 16.5053 14.8154 17.284 16.3145C18.0627 17.8136 19.1989 19.1479 20.6154 20.2269C20.7733 20.3512 20.9395 20.4754 21.114 20.5923L21.6126 20.2269C23.0267 19.1466 24.1607 17.8118 24.9378 16.3129C25.7148 14.8139 26.117 13.1858 26.117 11.5384C26.117 9.89106 25.7148 8.26287 24.9378 6.76394C24.1607 5.26501 23.0267 3.93027 21.6126 2.8499L21.114 2.49185Z" fill="#393E46"/>
</svg>
