<svg width="93" height="22" viewBox="0 0 93 22" fill="none" xmlns="http://www.w3.org/2000/svg">
<path d="M50.7722 6.00026H47.3879C47.2242 6.00003 47.063 6.03524 46.9184 6.10272C46.7738 6.1702 46.6503 6.26788 46.5587 6.38722L41.8038 12.5488L39.7901 6.59578C39.7255 6.41508 39.5972 6.25687 39.4238 6.1445C39.2505 6.03214 39.0409 5.97121 38.8255 5.97046H35.4412C35.2841 5.97046 35.1335 6.02538 35.0224 6.12307C34.9113 6.22075 34.849 6.35335 34.849 6.4915C34.8408 6.55081 34.8408 6.61058 34.849 6.6699L38.6394 16.4627L35.0689 20.9274C34.9807 21.041 34.9455 21.1801 34.9707 21.3159C34.9959 21.4516 35.0796 21.5736 35.2043 21.6567C35.3055 21.7263 35.4311 21.7632 35.5597 21.761H38.944C39.1028 21.7581 39.2587 21.723 39.3996 21.6585C39.5404 21.594 39.6625 21.5017 39.7562 21.3889L51.2122 6.83376C51.258 6.77814 51.2908 6.71492 51.3088 6.6481C51.3267 6.58127 51.3295 6.51204 51.3169 6.44426C51.3043 6.37649 51.2766 6.31183 51.2354 6.25351C51.1942 6.19518 51.1403 6.14446 51.0768 6.10454C50.9727 6.03956 50.849 6.0032 50.7214 6.00026H50.7722ZM27.6741 11.9533C27.5422 12.7656 27.0771 13.5074 26.3666 14.0392C25.656 14.571 24.7489 14.8559 23.816 14.8404C23.4681 14.8734 23.1162 14.8456 22.7805 14.7586C22.4448 14.6717 22.132 14.5275 21.86 14.3339C21.5879 14.1403 21.3622 13.901 21.1954 13.6304C21.0287 13.3599 20.9245 13.0631 20.8886 12.757C20.8292 12.4716 20.8292 12.179 20.8886 11.8937C21.0044 11.0703 21.4592 10.3129 22.167 9.76448C22.8748 9.21603 23.7864 8.91453 24.7297 8.91717C25.1567 8.90003 25.5828 8.96606 25.9776 9.1101C26.3724 9.25414 26.7264 9.47275 27.0142 9.75068C27.2828 10.0463 27.4748 10.39 27.5771 10.7575C27.6794 11.125 27.6894 11.5075 27.6065 11.8788L27.6741 11.9533ZM32.3784 5.92577H28.994C28.8506 5.92448 28.7114 5.96901 28.6025 6.05113C28.4936 6.13324 28.4223 6.24743 28.4018 6.37232L28.2495 7.22072L28.0126 6.92315C27.4896 6.45447 26.852 6.09666 26.1482 5.87745C25.4444 5.65823 24.6932 5.58324 23.9514 5.65799C22.0594 5.69201 20.2447 6.3246 18.8399 7.43982C17.4351 8.55504 16.5344 10.0783 16.3028 11.7302C16.1225 12.5365 16.1425 13.3675 16.3616 14.1664C16.5806 14.9653 16.9935 15.713 17.5719 16.3584C18.1204 16.8727 18.7922 17.2731 19.5386 17.5306C20.285 17.788 21.0872 17.896 21.8869 17.8467C22.7707 17.8544 23.6472 17.7058 24.4641 17.4092C25.281 17.1126 26.0217 16.6742 26.6419 16.1204L26.4897 16.9539C26.4653 17.0901 26.5032 17.229 26.5952 17.3405C26.6872 17.4521 26.8257 17.5271 26.9804 17.5491H30.1616C30.4001 17.5511 30.6312 17.4767 30.8118 17.3398C30.9924 17.2029 31.1102 17.0127 31.1431 16.805L33.0045 6.4766C33.024 6.33886 32.982 6.19995 32.8873 6.08891C32.7927 5.97787 32.6527 5.90351 32.4968 5.88144H32.4123L32.3784 5.92577ZM11.8354 5.95557C11.4293 8.21771 9.46638 8.21773 7.57115 8.21773H6.50518L7.24974 4.00624C7.27023 3.88135 7.34149 3.76716 7.45042 3.68504C7.55935 3.60292 7.6985 3.55839 7.84196 3.55969H8.46805C9.77102 3.55969 10.9894 3.55959 11.6155 4.19953C11.8138 4.45294 11.9469 4.74134 12.0053 5.04467C12.0638 5.34799 12.0462 5.65883 11.9539 5.95557H11.8354ZM11.1248 0.00256647H3.96693C3.72847 0.000563152 3.49729 0.0752728 3.31667 0.212215C3.13605 0.349157 3.01833 0.538963 2.98545 0.746691L0.00721682 17.0728C-0.0171685 17.2089 0.020793 17.3481 0.112771 17.4597C0.204748 17.5713 0.343208 17.6463 0.497908 17.6683H4.01764C4.2561 17.6703 4.48729 17.5959 4.6679 17.459C4.84852 17.322 4.96625 17.1319 4.99913 16.9241L5.77746 12.5637C5.81685 12.3585 5.93651 12.1716 6.11571 12.0357C6.2949 11.8999 6.5224 11.8236 6.75895 11.8195H9.02649C13.7476 11.8195 16.472 9.81041 17.1828 5.86655C17.382 5.17207 17.4034 4.44726 17.2453 3.74463C17.0873 3.042 16.7538 2.37876 16.2689 1.80329C15.5805 1.21981 14.7569 0.774135 13.8544 0.496712C12.9519 0.219289 11.9919 0.116918 11.0402 0.196228" fill="#393E46"/>
<path d="M87.5925 0.625262L84.6482 16.9937C84.6337 17.0613 84.6351 17.1307 84.6522 17.1978C84.6693 17.265 84.7018 17.3285 84.7477 17.3842C84.7937 17.4399 84.8521 17.4867 84.9193 17.5219C84.9866 17.5571 85.0613 17.5798 85.1389 17.5887H88.1848C88.4222 17.5876 88.6515 17.5122 88.8314 17.3758C89.0113 17.2395 89.13 17.0511 89.1662 16.8447L92.0599 0.684478C92.0843 0.54836 92.0463 0.409499 91.9543 0.297937C91.8623 0.186376 91.7238 0.111352 91.5691 0.0894087H88.1848C88.0413 0.0881156 87.9022 0.132639 87.7933 0.214744C87.6844 0.296848 87.613 0.411024 87.5925 0.535892V0.625262ZM78.7763 11.8004C78.6403 12.6125 78.1712 13.3527 77.4574 13.8817C76.7436 14.4107 75.8345 14.6919 74.9013 14.6722C74.2013 14.739 73.4997 14.5587 72.9507 14.1709C72.4018 13.7831 72.0505 13.2192 71.9739 12.6037C71.9422 12.3138 71.9709 12.0216 72.0585 11.7409C72.1898 10.9298 72.6517 10.1883 73.3584 9.65448C74.065 9.12068 74.9681 8.83108 75.8996 8.83925C76.3255 8.81922 76.7511 8.88196 77.146 9.02344C77.5409 9.16493 77.8954 9.38137 78.1841 9.65738C78.4521 9.95617 78.6437 10.3023 78.7459 10.6721C78.8481 11.0418 78.8584 11.4268 78.7763 11.8004ZM83.5482 5.9224H80.1639C80.0204 5.9211 79.8813 5.96563 79.7724 6.04773C79.6634 6.12984 79.5922 6.24401 79.5717 6.36888L79.4194 7.21716L79.1824 6.91963C78.6595 6.45102 78.022 6.09326 77.3182 5.87408C76.6144 5.65489 75.8631 5.57992 75.1213 5.65465C73.2318 5.68818 71.4191 6.31874 70.0147 7.43078C68.6103 8.54281 67.708 10.0621 67.4727 11.7111C67.2909 12.5196 67.3103 13.3532 67.5294 14.1546C67.7485 14.9559 68.162 15.706 68.7418 16.3535C69.2902 16.8678 69.9621 17.2681 70.7085 17.5255C71.4549 17.7829 72.257 17.8909 73.0568 17.8416C73.9406 17.8493 74.8171 17.7007 75.634 17.4042C76.4509 17.1076 77.1916 16.6693 77.8118 16.1156L77.6595 16.949C77.6352 17.0851 77.6731 17.224 77.7651 17.3355C77.8571 17.4471 77.9955 17.5221 78.1502 17.5441H81.3484C81.5859 17.543 81.8152 17.4675 81.9951 17.3312C82.175 17.1948 82.2937 17.0064 82.3299 16.8L84.1913 6.47314C84.2108 6.33543 84.1688 6.19654 84.0742 6.08551C83.9795 5.97449 83.8395 5.90014 83.6836 5.87808H83.5821L83.5482 5.9224ZM63.0053 5.95219C62.6161 8.214 60.6532 8.21403 58.758 8.21403H57.6751L58.4366 4.00313C58.4535 3.87691 58.5238 3.7607 58.6335 3.67799C58.7433 3.59528 58.8844 3.55204 59.0288 3.55665H59.5195C60.8055 3.55665 62.024 3.55655 62.667 4.1964C62.8653 4.44978 62.9983 4.73814 63.0568 5.04142C63.1152 5.3447 63.0977 5.65549 63.0053 5.95219ZM62.1762 3.92633e-05H55.0184C54.7799 -0.00196377 54.5487 0.0727352 54.3681 0.209658C54.1875 0.34658 54.0698 0.536359 54.0369 0.744058L51.1264 16.8894C51.1069 17.0271 51.1489 17.166 51.2435 17.277C51.3382 17.3881 51.4782 17.4624 51.6341 17.4845H55.3906C55.5583 17.4861 55.721 17.4342 55.8486 17.3384C55.9761 17.2427 56.0599 17.1098 56.0845 16.9639L56.9136 12.3955C56.9465 12.1878 57.0642 11.9977 57.2448 11.8607C57.4254 11.7238 57.6566 11.6495 57.8951 11.6515H60.1625C64.8667 11.6515 67.608 9.64263 68.3018 5.69934C68.5011 5.00496 68.5224 4.28025 68.3644 3.57772C68.2064 2.87519 67.8729 2.21241 67.3881 1.63702C66.7004 1.05725 65.8793 0.613665 64.9803 0.336446C64.0813 0.059227 63.1251 -0.0453076 62.1762 0.0298291" fill="#393E46"/>
</svg>
