<svg width="312" height="80" viewBox="0 0 312 80" fill="none" xmlns="http://www.w3.org/2000/svg">
<path d="M171.512 22.5077H160.08C159.527 22.5069 158.982 22.634 158.494 22.8776C158.005 23.1212 157.588 23.4739 157.279 23.9047L141.216 46.1496L134.414 24.6577C134.196 24.0053 133.762 23.4341 133.177 23.0285C132.591 22.6228 131.883 22.4028 131.156 22.4001H119.723C119.192 22.4001 118.684 22.5984 118.308 22.9511C117.933 23.3037 117.723 23.7824 117.723 24.2812C117.695 24.4953 117.695 24.7111 117.723 24.9253L130.527 60.2799L118.465 76.3989C118.167 76.809 118.049 77.3111 118.134 77.8012C118.219 78.2913 118.502 78.7318 118.923 79.0316C119.265 79.2831 119.689 79.4164 120.123 79.4081H131.556C132.092 79.3977 132.619 79.2711 133.095 79.0382C133.571 78.8052 133.983 78.4721 134.3 78.0648L172.999 25.5169C173.153 25.316 173.264 25.0878 173.325 24.8466C173.386 24.6053 173.395 24.3553 173.353 24.1107C173.31 23.866 173.217 23.6326 173.077 23.422C172.938 23.2114 172.756 23.0283 172.541 22.8842C172.19 22.6496 171.772 22.5183 171.341 22.5077H171.512ZM93.4853 43.9996C93.0396 46.9324 91.4687 49.6106 89.0683 51.5305C86.6678 53.4503 83.6036 54.4789 80.4523 54.4229C79.2771 54.542 78.0883 54.4417 76.9543 54.1278C75.8204 53.8138 74.7635 53.2933 73.8447 52.5943C72.9258 51.8953 72.163 51.0316 71.5999 50.0547C71.0367 49.0778 70.6845 48.0065 70.5633 46.9013C70.3626 45.871 70.3626 44.8147 70.5633 43.7845C70.9546 40.812 72.491 38.0776 74.8819 36.0976C77.2729 34.1175 80.3525 33.029 83.539 33.0385C84.9814 32.9767 86.4206 33.215 87.7543 33.7351C89.0881 34.2551 90.2839 35.0443 91.2562 36.0477C92.1634 37.1149 92.8121 38.3557 93.1577 39.6826C93.5032 41.0095 93.5371 42.3903 93.2567 43.7307L93.4853 43.9996ZM109.377 22.2388H97.9441C97.4595 22.2341 96.9894 22.3949 96.6215 22.6913C96.2535 22.9878 96.0128 23.4001 95.9436 23.8509L95.4289 26.9139L94.6286 25.8396C92.8621 24.1475 90.7081 22.8557 88.3307 22.0643C85.9533 21.2729 83.4154 21.0021 80.9097 21.272C74.5183 21.3948 68.3881 23.6786 63.6427 27.7049C58.8972 31.7311 55.8544 37.2305 55.0721 43.1942C54.4629 46.1053 54.5306 49.1054 55.2706 51.9896C56.0106 54.8738 57.4054 57.5733 59.3593 59.9035C61.212 61.7603 63.4816 63.2058 66.0029 64.1352C68.5243 65.0646 71.234 65.4545 73.9357 65.2764C76.9211 65.3043 79.882 64.7679 82.6417 63.6971C85.4013 62.6263 87.9033 61.0435 89.9984 59.0443L89.4842 62.0534C89.4018 62.5449 89.53 63.0463 89.8407 63.4492C90.1514 63.852 90.6192 64.1229 91.1417 64.2021H101.888C102.694 64.2093 103.475 63.9409 104.085 63.4465C104.695 62.9521 105.093 62.2656 105.204 61.5156L111.492 24.2274C111.558 23.7301 111.416 23.2286 111.096 22.8278C110.776 22.4269 110.303 22.1584 109.777 22.0787H109.491L109.377 22.2388ZM39.9811 22.3463C38.6091 30.5133 31.9782 30.5134 25.5759 30.5134H21.975L24.4902 15.3087C24.5594 14.8578 24.8001 14.4456 25.1681 14.1491C25.5361 13.8527 26.0061 13.6919 26.4907 13.6966H28.6057C33.0073 13.6966 37.1229 13.6962 39.2379 16.0066C39.908 16.9215 40.3575 17.9627 40.555 19.0577C40.7524 20.1528 40.6931 21.275 40.3812 22.3463H39.9811ZM37.5803 0.85439H13.4006C12.5951 0.847157 11.8141 1.11688 11.204 1.61128C10.5938 2.10568 10.1961 2.79093 10.0851 3.54088L0.024379 62.4824C-0.0579966 62.9739 0.0702404 63.4766 0.380948 63.8794C0.691656 64.2822 1.15938 64.5531 1.68197 64.6324H13.5719C14.3774 64.6396 15.1584 64.3712 15.7685 63.8768C16.3787 63.3824 16.7764 62.6958 16.8874 61.9459L19.5167 46.2034C19.6498 45.4627 20.054 44.7879 20.6593 44.2974C21.2647 43.8069 22.0332 43.5315 22.8322 43.5169H30.4922C46.4406 43.5169 55.6438 36.2634 58.0447 22.025C58.7177 19.5177 58.7899 16.9009 58.2561 14.3643C57.7223 11.8276 56.5955 9.4331 54.9577 7.35549C52.6323 5.24896 49.8499 3.63996 46.8012 2.63839C43.7525 1.63682 40.5097 1.26723 37.2946 1.55356" fill="white"/>
<path d="M295.898 3.11194L285.952 62.215C285.903 62.4591 285.908 62.7097 285.966 62.9522C286.024 63.1946 286.133 63.4239 286.288 63.6251C286.444 63.8263 286.641 63.9952 286.868 64.1223C287.095 64.2493 287.348 64.3314 287.61 64.3636H297.899C298.701 64.3597 299.476 64.0873 300.083 63.5949C300.691 63.1026 301.092 62.4224 301.214 61.6771L310.989 3.32576C311.072 2.83427 310.943 2.33287 310.633 1.93004C310.322 1.52721 309.854 1.25632 309.331 1.17708H297.899C297.414 1.17242 296.945 1.33318 296.577 1.62964C296.209 1.92611 295.968 2.33837 295.898 2.78925V3.11194ZM266.116 43.4632C265.657 46.3956 264.072 49.0682 261.661 50.9783C259.25 52.8885 256.179 53.9037 253.026 53.8328C250.661 54.0739 248.291 53.4229 246.437 52.0225C244.583 50.6221 243.396 48.5861 243.137 46.3635C243.03 45.3171 243.127 44.2619 243.423 43.2481C243.866 40.3197 245.427 37.6421 247.814 35.7146C250.201 33.7872 253.252 32.7415 256.399 32.771C257.837 32.6987 259.275 32.9252 260.609 33.4361C261.943 33.9469 263.141 34.7285 264.116 35.7251C265.021 36.804 265.668 38.0537 266.013 39.3889C266.359 40.724 266.394 42.1142 266.116 43.4632ZM282.236 22.2388H270.804C270.319 22.2342 269.849 22.3949 269.481 22.6914C269.113 22.9879 268.872 23.4001 268.803 23.851L268.289 26.914L267.488 25.8396C265.722 24.1476 263.568 22.8558 261.191 22.0644C258.813 21.2729 256.275 21.0022 253.769 21.2721C247.387 21.3931 241.263 23.67 236.519 27.6853C231.775 31.7006 228.727 37.1866 227.932 43.1405C227.318 46.0601 227.383 49.0699 228.123 51.9635C228.863 54.8571 230.26 57.5653 232.219 59.9036C234.072 61.7605 236.341 63.206 238.863 64.1354C241.384 65.0648 244.094 65.4547 246.795 65.2766C249.781 65.3045 252.742 64.7681 255.501 63.6972C258.261 62.6264 260.763 61.0437 262.858 59.0444L262.344 62.0536C262.261 62.5451 262.39 63.0465 262.7 63.4493C263.011 63.8521 263.479 64.123 264.001 64.2023H274.805C275.608 64.1983 276.382 63.926 276.99 63.4336C277.597 62.9412 277.998 62.2611 278.121 61.5158L284.409 24.2275C284.475 23.7302 284.333 23.2287 284.013 22.8278C283.693 22.4269 283.22 22.1585 282.694 22.0788H282.351L282.236 22.2388ZM212.841 22.3464C211.526 30.5134 204.895 30.5135 198.493 30.5135H194.835L197.407 15.3088C197.464 14.853 197.702 14.4334 198.072 14.1347C198.443 13.8361 198.92 13.6799 199.408 13.6966H201.065C205.41 13.6966 209.526 13.6962 211.698 16.0066C212.368 16.9215 212.817 17.9627 213.014 19.0578C213.212 20.1529 213.153 21.2751 212.841 22.3464ZM210.04 0.85439H185.86C185.055 0.847157 184.274 1.11688 183.663 1.61128C183.053 2.10568 182.656 2.79093 182.545 3.54089L172.713 61.8385C172.647 62.3357 172.789 62.8372 173.108 63.2381C173.428 63.639 173.901 63.9075 174.428 63.9871H187.118C187.684 63.9929 188.234 63.8055 188.665 63.4598C189.095 63.1141 189.379 62.6342 189.461 62.1074L192.262 45.6119C192.373 44.8619 192.771 44.1754 193.381 43.681C193.991 43.1866 194.772 42.9182 195.578 42.9254H203.237C219.129 42.9254 228.389 35.6719 230.733 21.4334C231.406 18.9261 231.478 16.3094 230.944 13.7727C230.41 11.236 229.284 8.84283 227.646 6.76521C225.323 4.67175 222.549 3.07007 219.512 2.06909C216.475 1.0681 213.245 0.690651 210.04 0.961955" fill="white"/>
</svg>
