<svg width="198" height="62" viewBox="0 0 198 62" fill="none" xmlns="http://www.w3.org/2000/svg">
<path d="M102.439 19.9864C102.439 28.3752 110.256 33.0478 116.471 35.8072C122.685 38.5667 124.756 40.4799 124.756 43.1657C124.756 47.0657 119.793 48.7951 115.181 48.8319C109.462 48.9677 103.805 47.6997 98.7656 45.1527L95.8732 57.9196C101.542 59.991 107.575 61.0395 113.657 61.0103C130.463 61.0103 141.406 53.2101 141.485 41.1054C141.485 25.7628 118.933 24.9165 119.089 18.0363C119.089 15.9391 121.239 13.7318 125.851 13.1799C131.213 12.7061 136.612 13.5953 141.485 15.7552L144.259 3.42977C139.482 1.75127 134.428 0.879367 129.329 0.854248C113.696 0.854248 102.4 8.76481 102.283 20.0969L102.439 19.9864ZM171.423 1.59014C169.967 1.5828 168.541 1.9851 167.33 2.74553C166.118 3.50596 165.175 4.58975 164.622 5.85799L140.664 59.7961H157.431L160.753 51.0762H181.272L183.226 59.7961H198L185.102 1.59014H171.462H171.423ZM173.807 17.3007L178.653 39.1555H165.404L173.807 17.3007ZM82.1549 1.59014L68.9053 59.7961H84.8906L98.1401 1.59014H82.1549ZM58.4697 1.59014L41.8589 41.2158L35.0975 7.5137C34.8343 5.85951 33.9465 4.35001 32.597 3.26202C31.2474 2.17404 29.5264 1.58054 27.7496 1.59014H0.390746L0 3.28268C5.41106 4.31746 10.6631 5.98602 15.6336 8.24959C16.7075 8.70027 17.6352 9.41104 18.3219 10.3095C19.0085 11.208 19.4295 12.2621 19.5421 13.3638L32.3226 59.7961H49.2068L75.276 1.59014H58.4697Z" fill="white"/>
</svg>
