<svg width="73" height="20" viewBox="0 0 73 20" fill="none" xmlns="http://www.w3.org/2000/svg">
<path d="M37.3448 6.31608C37.3448 8.97559 40.1945 10.457 42.46 11.3318C44.7255 12.2066 45.4807 12.8132 45.4807 13.6647C45.4807 14.9011 43.6711 15.4494 41.9898 15.4611C39.9052 15.5041 37.8428 15.1021 36.0056 14.2946L34.9511 18.3422C37.0179 18.9989 39.2172 19.3313 41.4342 19.322C47.561 19.322 51.5505 16.8491 51.579 13.0115C51.579 8.1474 43.3576 7.87909 43.4146 5.69783C43.4146 5.03295 44.1983 4.33314 45.8797 4.15817C47.8344 4.00795 49.8027 4.28987 51.579 4.97463L52.5906 1.06705C50.8491 0.534906 49.0065 0.258482 47.1477 0.250519C41.4484 0.250519 37.3306 2.75844 37.2879 6.35111L37.3448 6.31608ZM62.4932 0.483823C61.9623 0.481495 61.4427 0.609037 61.0009 0.850119C60.5592 1.0912 60.2155 1.4348 60.014 1.83688L51.2797 18.9371H57.3922L58.6034 16.1726H66.0838L66.7962 18.9371H72.182L67.4801 0.483823H62.5074H62.4932ZM63.3623 5.46459L65.1291 12.3933H60.299L63.3623 5.46459ZM29.95 0.483823L25.1198 18.9371H30.9473L35.7775 0.483823H29.95ZM21.3155 0.483823L15.2599 13.0465L12.795 2.36179C12.699 1.83736 12.3754 1.35879 11.8834 1.01387C11.3914 0.668939 10.764 0.480779 10.1163 0.483823H0.142449L0 1.02042C1.97263 1.34847 3.88731 1.87747 5.69933 2.5951C6.09083 2.73798 6.42902 2.96332 6.67934 3.24816C6.92966 3.53301 7.08314 3.86719 7.12417 4.21648L11.7834 18.9371H17.9386L27.4423 0.483823H21.3155Z" fill="#393E46"/>
</svg>
