<svg width="42" height="16" viewBox="0 0 42 16" fill="none" xmlns="http://www.w3.org/2000/svg">
<path d="M19.504 7.59325V12.06H17.9941V1.03712H22.0406C22.5235 1.027 23.0038 1.10606 23.4535 1.26977C23.9032 1.43347 24.3134 1.67847 24.6603 1.99066C24.9902 2.27553 25.2564 2.61798 25.4436 2.99846C25.6309 3.37895 25.7356 3.79002 25.7517 4.20811C25.7678 4.62619 25.6951 5.04325 25.5376 5.43521C25.3801 5.82716 25.1411 6.18642 24.834 6.49249L24.6603 6.65375C24.3127 6.96406 23.902 7.20699 23.4522 7.36831C23.0024 7.52963 22.5226 7.60601 22.0406 7.59325H19.504ZM19.504 2.39039V6.23998H22.0633C22.4648 6.23836 22.857 6.12823 23.1922 5.92311C23.5275 5.71798 23.7913 5.42673 23.9513 5.08478C24.1114 4.74283 24.1609 4.36499 24.0937 3.99737C24.0266 3.62975 23.8457 3.28835 23.5732 3.01455C23.3799 2.82371 23.1456 2.67263 22.8855 2.57117C22.6255 2.46971 22.3454 2.42006 22.0633 2.42548L19.504 2.39039Z" fill="white"/>
<path d="M29.2505 4.27008C30.2224 4.22094 31.1772 4.52256 31.9155 5.11173C32.2469 5.40748 32.5059 5.76576 32.6752 6.1626C32.8446 6.55943 32.9202 6.9854 32.8969 7.41172V12.0612H31.4399V11.0093H31.3719C31.1076 11.4091 30.7366 11.7387 30.2948 11.966C29.853 12.1933 29.3554 12.3107 28.8503 12.3067C28.0209 12.3363 27.2107 12.0703 26.5854 11.5633C26.2954 11.3386 26.0633 11.0561 25.9065 10.7369C25.7497 10.4177 25.6722 10.0697 25.6795 9.7189C25.6645 9.35979 25.7432 9.00275 25.9088 8.67797C26.0745 8.35318 26.3222 8.07032 26.6308 7.85361C27.3691 7.35933 28.266 7.11213 29.175 7.15234C29.9602 7.12338 30.7402 7.28272 31.4399 7.61512V7.31362C31.4428 7.07423 31.3879 6.83725 31.2795 6.62006C31.1711 6.40287 31.0118 6.21095 30.8132 6.05833C30.4088 5.72253 29.8835 5.53987 29.3411 5.54642C28.94 5.53615 28.5428 5.62241 28.1883 5.7969C27.8337 5.97139 27.5338 6.22814 27.3177 6.54216L25.9814 5.76386C26.3428 5.27552 26.8333 4.88159 27.4057 4.62002C27.9782 4.35846 28.6135 4.23795 29.2505 4.27008ZM27.28 9.74698C27.2752 9.92812 27.3189 10.1076 27.4072 10.2692C27.4955 10.4307 27.6256 10.5694 27.7858 10.6727C28.1207 10.9186 28.5367 11.0499 28.9636 11.0444C29.6085 11.044 30.2271 10.807 30.6849 10.3851C30.9209 10.189 31.11 9.94922 31.2401 9.68107C31.3701 9.41292 31.4382 9.12238 31.4399 8.82829C30.8608 8.44445 30.1566 8.25861 29.4468 8.30234C28.9092 8.28947 28.3809 8.4343 27.9369 8.71615C27.7482 8.82591 27.5921 8.97767 27.4827 9.15769C27.3733 9.33771 27.3139 9.54027 27.3102 9.74698H27.28Z" fill="white"/>
<path d="M41.2694 4.50854L36.1735 15.377H34.6032L36.4906 11.5766L33.1387 4.50854H34.7995L37.2229 9.92873L39.5783 4.50854H41.2694Z" fill="white"/>
<path d="M13.3441 6.61199C13.3454 6.17937 13.3051 5.74745 13.2234 5.32153H6.76855V7.76205H10.4451C10.3703 8.152 10.2112 8.52402 9.97772 8.85544C9.74419 9.18686 9.44094 9.47085 9.0862 9.69063V11.2686H11.2982C11.9702 10.668 12.4994 9.94337 12.8517 9.14137C13.2041 8.33938 13.3718 7.47783 13.3441 6.61199Z" fill="white"/>
<path d="M6.76853 12.8256C8.43266 12.869 10.0522 12.3222 11.2982 11.2967L9.10129 9.71179C8.17725 10.2614 7.05603 10.4475 5.98427 10.2292C4.91251 10.0109 3.97804 9.40607 3.38637 8.54773C3.20293 8.28293 3.05578 7.9979 2.94844 7.69922H0.683594V9.33307C1.24797 10.3832 2.11638 11.2663 3.19127 11.8832C4.26617 12.5002 5.50501 12.8266 6.76853 12.8256Z" fill="white"/>
<path d="M2.99353 7.69888C2.70647 6.91205 2.70647 6.05933 2.99353 5.27251V3.64551H0.728684C0.249561 4.52736 0 5.50132 0 6.48911C0 7.47691 0.249561 8.45087 0.728684 9.33272L2.99353 7.69888Z" fill="white"/>
<path d="M6.76858 2.66433C7.25079 2.65444 7.73036 2.73285 8.17987 2.8953C8.62938 3.05775 9.04 3.30096 9.38823 3.61097L11.3361 1.80159C10.1085 0.734542 8.48754 0.144903 6.80636 0.153661C5.53997 0.152649 4.29843 0.480379 3.22192 1.09996C2.1454 1.71953 1.27671 2.6063 0.713867 3.66011L2.97872 5.28715C3.23788 4.53789 3.74232 3.88237 4.42171 3.41219C5.10109 2.94201 5.92155 2.68063 6.76858 2.66433Z" fill="white"/>
</svg>
