<svg width="34" height="25" viewBox="0 0 34 25" fill="none" xmlns="http://www.w3.org/2000/svg">
<path d="M6.14848 24.9373V23.31C6.16677 23.0549 6.07534 22.8034 5.89425 22.6109C5.71316 22.4183 5.4572 22.3003 5.18257 22.2829H5.04935C4.85688 22.2703 4.66433 22.3062 4.49199 22.3868C4.31966 22.4674 4.17391 22.5897 4.07013 22.7407C3.97605 22.5941 3.84078 22.474 3.67883 22.3934C3.51689 22.3127 3.33439 22.2745 3.15085 22.2829C2.99007 22.2746 2.82974 22.3056 2.68595 22.3729C2.54215 22.4403 2.41992 22.5415 2.33149 22.6665V22.3447H1.7253V24.9373H2.33816V23.5018C2.31694 23.3431 2.36265 23.183 2.46572 23.055C2.56879 22.927 2.72121 22.8409 2.89105 22.815H3.01761C3.42396 22.815 3.6238 23.0563 3.6238 23.4956V24.9311H4.26996V23.4956C4.25102 23.3352 4.30032 23.1742 4.40734 23.0471C4.51437 22.9199 4.67063 22.8366 4.84283 22.815H4.9361C5.34911 22.815 5.54229 23.0625 5.54229 23.4956V24.9373H6.14848ZM15.208 22.3447H14.2154V21.5589H13.5959V22.3447H13.0297V22.8583H13.5959V24.0401C13.5959 24.6588 13.849 24.9992 14.5685 24.9992C14.8363 24.9985 15.0989 24.9301 15.3279 24.8011L15.148 24.3185C14.986 24.4075 14.8031 24.4585 14.6151 24.467C14.3154 24.467 14.2154 24.2938 14.2154 24.0339V22.8583H15.208V22.3447ZM20.3839 22.2829C20.2364 22.278 20.0902 22.3106 19.9611 22.3771C19.832 22.4436 19.7248 22.5415 19.6511 22.6603V22.3447H19.0516V24.9373H19.6578V23.4832C19.6578 23.0563 19.8576 22.815 20.2507 22.815C20.3807 22.8154 20.5095 22.8385 20.6304 22.883L20.8169 22.3509C20.6776 22.3061 20.5313 22.2832 20.3839 22.2829ZM12.5567 22.5551C12.2159 22.3639 11.8223 22.2693 11.4243 22.2829C10.7182 22.2829 10.2652 22.5984 10.2652 23.112C10.2652 23.6255 10.5983 23.7926 11.2245 23.873L11.5109 23.9101C11.844 23.9535 11.9972 24.0339 11.9972 24.1824C11.9972 24.3309 11.7774 24.498 11.331 24.498C10.9984 24.5057 10.6724 24.4098 10.4051 24.2257L10.1187 24.665C10.4714 24.8941 10.8942 25.0113 11.3244 24.9992C12.1304 24.9992 12.5967 24.6465 12.5967 24.1577C12.5967 23.6689 12.2303 23.4647 11.6242 23.3842L11.3377 23.3409C11.0712 23.3409 10.8647 23.2605 10.8647 23.0872C10.8647 22.914 11.0646 22.7841 11.3977 22.7841C11.7018 22.7899 11.9996 22.8664 12.2636 23.0068L12.5567 22.5551ZM28.8106 22.2829C28.663 22.278 28.5169 22.3106 28.3878 22.3771C28.2587 22.4436 28.1515 22.5415 28.0778 22.6603V22.3447H27.4783V24.9373H28.0845V23.4832C28.0845 23.0563 28.2843 22.815 28.6773 22.815C28.8073 22.816 28.936 22.839 29.057 22.883L29.2435 22.3509C29.1041 22.3068 28.9579 22.2838 28.8106 22.2829ZM20.9901 23.6194C20.9772 23.9628 21.1093 24.2973 21.3582 24.5516C21.6071 24.8059 21.9531 24.9598 22.3224 24.9806H22.4622C22.8249 24.9949 23.1805 24.8848 23.4615 24.6712L23.175 24.2134C22.9644 24.3629 22.7074 24.4454 22.4423 24.4485C22.3324 24.4501 22.2232 24.4315 22.1211 24.3938C22.0189 24.356 21.9259 24.2999 21.8472 24.2285C21.7686 24.1572 21.7059 24.0721 21.6628 23.9782C21.6198 23.8843 21.5971 23.7833 21.5963 23.6812C21.593 23.6607 21.593 23.6399 21.5963 23.6194C21.5797 23.4151 21.6511 23.2131 21.7947 23.0577C21.9383 22.9022 22.1425 22.806 22.3623 22.7902H22.4356C22.7007 22.7933 22.9577 22.8758 23.1684 23.0253L23.4548 22.5675C23.1755 22.3513 22.8187 22.2408 22.4556 22.2581C22.2704 22.2481 22.0849 22.2722 21.9098 22.3291C21.7347 22.386 21.5735 22.4745 21.4354 22.5895C21.2973 22.7046 21.1851 22.8438 21.1052 22.9994C21.0254 23.1549 20.9795 23.3235 20.9701 23.4956C20.9668 23.5389 20.9668 23.5823 20.9701 23.6255L20.9901 23.6194ZM26.6723 23.6194V22.3819H26.0661V22.6912C25.9613 22.569 25.8272 22.4713 25.6746 22.4057C25.5219 22.3402 25.3548 22.3087 25.1868 22.3138C25.0028 22.3138 24.8207 22.3476 24.6509 22.4134C24.4811 22.4792 24.327 22.5755 24.1976 22.6969C24.0681 22.8183 23.9658 22.9623 23.8967 23.1207C23.8275 23.279 23.7928 23.4485 23.7945 23.6194C23.7856 23.79 23.8129 23.9607 23.8751 24.1215C23.9372 24.2824 24.0329 24.4303 24.1567 24.5567C24.2804 24.6831 24.4298 24.7857 24.5963 24.8584C24.7628 24.9311 24.943 24.9727 25.1268 24.9806H25.1868C25.3548 24.9857 25.5219 24.9542 25.6746 24.8887C25.8272 24.8232 25.9613 24.7254 26.0661 24.6032V24.9187H26.6723V23.6194ZM24.414 23.6194C24.4012 23.4139 24.4756 23.2119 24.6213 23.0569C24.7671 22.9018 24.9725 22.8061 25.1934 22.7902H25.26C25.4815 22.7886 25.6947 22.8683 25.8532 23.012C26.0116 23.1557 26.1025 23.3518 26.106 23.5575C26.1093 23.578 26.1093 23.5988 26.106 23.6194C26.1142 23.7207 26.1006 23.8225 26.066 23.9188C26.0315 24.0152 25.9767 24.1043 25.9048 24.1808C25.8329 24.2574 25.7454 24.3199 25.6473 24.3648C25.5492 24.4097 25.4425 24.436 25.3333 24.4423H25.2667C25.0452 24.444 24.832 24.3642 24.6736 24.2205C24.5151 24.0768 24.4242 23.8808 24.4207 23.6751L24.414 23.6194ZM17.0865 22.2581C16.9066 22.2506 16.7268 22.277 16.5582 22.3358C16.3896 22.3946 16.2356 22.4846 16.1054 22.6003C15.9753 22.7159 15.8718 22.8549 15.8011 23.0088C15.7304 23.1627 15.6941 23.3283 15.6943 23.4956V23.6194C15.6723 23.9562 15.7943 24.2874 16.0338 24.5412C16.2733 24.7949 16.6109 24.9506 16.9733 24.9744H17.1265C17.5433 24.9854 17.9503 24.8556 18.2722 24.6093L17.9725 24.1948C17.7408 24.3646 17.4549 24.4582 17.1598 24.4608C16.962 24.4768 16.7652 24.4215 16.6101 24.3063C16.4551 24.1911 16.3537 24.0248 16.3271 23.8421H18.3988C18.3988 23.774 18.3988 23.6998 18.3988 23.6255C18.4162 23.4634 18.3991 23.2996 18.3482 23.1436C18.2973 22.9876 18.2138 22.8425 18.1024 22.7166C17.991 22.5907 17.8539 22.4865 17.699 22.4099C17.5441 22.3334 17.3744 22.286 17.1997 22.2705L17.0865 22.2581ZM17.0865 22.7593C17.1773 22.7542 17.2682 22.7665 17.3537 22.7953C17.4392 22.8241 17.5174 22.8689 17.5836 22.9268C17.6497 22.9848 17.7024 23.0548 17.7384 23.1324C17.7743 23.21 17.7928 23.2936 17.7926 23.378H16.3471C16.3656 23.2101 16.4524 23.0552 16.5899 22.9447C16.7273 22.8343 16.9049 22.7769 17.0865 22.7841V22.7593ZM32.3011 23.6194V21.2867H31.695V22.6417C31.5924 22.5172 31.4587 22.4178 31.3055 22.352C31.1523 22.2863 30.9842 22.2561 30.8156 22.2643C30.4446 22.2643 30.0888 22.4012 29.8265 22.6449C29.5641 22.8885 29.4167 23.219 29.4167 23.5637C29.4135 23.5842 29.4135 23.605 29.4167 23.6255C29.4069 23.7961 29.4337 23.9668 29.4956 24.1276C29.5575 24.2884 29.6532 24.4362 29.7772 24.5624C29.9012 24.6885 30.051 24.7904 30.2179 24.8623C30.3847 24.9341 30.5653 24.9743 30.749 24.9806H30.8156C30.9845 24.986 31.1522 24.954 31.3051 24.8873C31.458 24.8206 31.5916 24.7211 31.695 24.597V24.9126H32.3011V23.6194ZM30.0429 23.6194C30.0301 23.4145 30.1047 23.2133 30.2506 23.0592C30.3965 22.9052 30.6019 22.8107 30.8223 22.7964H30.8889C31.1104 22.7947 31.3236 22.8745 31.4821 23.0182C31.6405 23.1619 31.7314 23.358 31.7349 23.5637C31.7349 23.5637 31.7349 23.6008 31.7349 23.6194C31.7431 23.721 31.7295 23.8231 31.6951 23.9199C31.6606 24.0166 31.6059 24.1061 31.5341 24.1831C31.4623 24.2602 31.3748 24.3233 31.2767 24.3688C31.1785 24.4144 31.0716 24.4414 30.9622 24.4485H30.9156C30.8062 24.4501 30.6976 24.4317 30.5959 24.3944C30.4942 24.357 30.4014 24.3014 30.3228 24.2307C30.2443 24.1601 30.1815 24.0757 30.138 23.9825C30.0946 23.8892 30.0713 23.789 30.0696 23.6874L30.0429 23.6194ZM9.59908 23.6194V22.3262H8.93294V22.6417C8.83039 22.5172 8.69674 22.4178 8.54354 22.352C8.39033 22.2863 8.22218 22.2561 8.05363 22.2643C7.86999 22.2635 7.688 22.2966 7.51825 22.3617C7.3485 22.4267 7.19438 22.5225 7.06483 22.6434C6.93528 22.7643 6.83291 22.9079 6.76366 23.0659C6.6944 23.2239 6.65963 23.3931 6.6614 23.5637V23.6255C6.64509 23.9698 6.776 24.3061 7.02557 24.5611C7.27515 24.8162 7.62315 24.9692 7.99368 24.9868H8.05363C8.22267 24.9937 8.391 24.9624 8.54415 24.8956C8.6973 24.8287 8.83072 24.7284 8.93294 24.6032V24.9187H9.59908V23.6194ZM7.34086 23.6194C7.33271 23.5181 7.3463 23.4163 7.38084 23.3199C7.41538 23.2235 7.47019 23.1344 7.54207 23.0579C7.61396 22.9813 7.70149 22.9188 7.7996 22.8739C7.89771 22.829 8.00443 22.8027 8.11358 22.7964H8.18687C8.29646 22.7948 8.40529 22.8134 8.50705 22.8512C8.60881 22.8891 8.70146 22.9453 8.77958 23.0167C8.8577 23.0881 8.91973 23.1733 8.96207 23.2672C9.00441 23.3611 9.02622 23.4618 9.02621 23.5637V23.6194C9.04085 23.8252 8.96702 24.0281 8.82093 24.1835C8.67484 24.3389 8.4684 24.4342 8.24682 24.4485H8.18687C8.07696 24.4501 7.96778 24.4315 7.86565 24.3938C7.76352 24.356 7.67045 24.2999 7.5918 24.2285C7.51315 24.1572 7.45048 24.0721 7.40741 23.9782C7.36434 23.8843 7.34172 23.7833 7.34086 23.6812V23.6194ZM16.054 18.1867L16.3071 18.3847C14.7254 19.3606 12.8884 19.9198 10.9917 20.0026C9.09495 20.0855 7.20954 19.689 5.53621 18.8554C3.86288 18.0217 2.46429 16.7821 1.48938 15.2686C0.514473 13.7551 -0.000264666 12.0243 1.02091e-07 10.2605C1.02091e-07 7.67427 1.10607 5.19396 3.0749 3.3652C5.04373 1.53644 7.71403 0.509049 10.4984 0.509049C12.5661 0.506776 14.588 1.07535 16.3071 2.14256C16.2205 2.20443 16.1339 2.26631 16.054 2.33437C14.8356 3.3217 13.859 4.53994 13.1898 5.90711C12.5206 7.27429 12.1744 8.75869 12.1744 10.2605C12.1744 11.7624 12.5206 13.2468 13.1898 14.614C13.859 15.9812 14.8356 17.1994 16.054 18.1867ZM23.4748 0.509049C21.4048 0.505548 19.3804 1.07418 17.6594 2.14256C17.746 2.20443 17.8326 2.26631 17.9125 2.33437C19.1309 3.3217 20.1075 4.53994 20.7767 5.90711C21.4458 7.27429 21.7921 8.75869 21.7921 10.2605C21.7921 11.7624 21.4458 13.2468 20.7767 14.614C20.1075 15.9812 19.1309 17.1994 17.9125 18.1867L17.6594 18.3847C19.2416 19.3601 21.0789 19.9188 22.9758 20.0015C24.8727 20.0841 26.7583 19.6876 28.4319 18.8542C30.1055 18.0207 31.5046 16.7815 32.4803 15.2682C33.4561 13.755 33.972 12.0244 33.9731 10.2605C33.9714 7.67478 32.8647 5.19541 30.8963 3.36701C28.9278 1.5386 26.2586 0.510688 23.4748 0.509049ZM16.9266 2.61899L16.5269 2.92217C15.3913 3.83583 14.4805 4.96568 13.8562 6.23503C13.2319 7.50439 12.9089 8.88359 12.9089 10.2791C12.9089 11.6746 13.2319 13.0538 13.8562 14.3232C14.4805 15.5925 15.3913 16.7224 16.5269 17.6361C16.6535 17.7412 16.7867 17.8464 16.9266 17.9454L17.3263 17.6361C18.46 16.7213 19.3691 15.591 19.992 14.3218C20.615 13.0526 20.9374 11.674 20.9374 10.2791C20.9374 8.88422 20.615 7.50556 19.992 6.23635C19.3691 4.96715 18.46 3.83696 17.3263 2.92217L16.9266 2.61899Z" fill="white"/>
</svg>
