<svg width="70" height="27" viewBox="0 0 70 27" fill="none" xmlns="http://www.w3.org/2000/svg">
<path d="M1.79487 1.79492H0V23.3334H1.79487V1.79492Z" fill="#393E46"/>
<path d="M15.2563 1.79492H13.4614V16.5746L13.9101 17.0513H15.2563V1.79492Z" fill="#393E46"/>
<path d="M5.38472 23.3334V12.1154L4.936 11.6667H3.58984V23.3334H5.38472Z" fill="#393E46"/>
<path d="M4.93601 11.6667L3.63587 12.9818L13.6344 22.9803L14.9036 21.7111L4.93601 11.6667Z" fill="#393E46"/>
<path d="M1.79469 1.79491L0.675194 3.73959L13.4612 16.6025L14.3592 14.359L1.79469 1.79491Z" fill="#393E46"/>
<path d="M26.9229 3.62477V1.8299L13.4613 1.8299V3.62477L26.9229 3.62477Z" fill="#393E46"/>
<path d="M26.9229 7.21449V5.41962L17.0511 5.41962V7.21449L26.9229 7.21449Z" fill="#393E46"/>
<path d="M26.9229 10.8042V9.00934H17.0511V10.8042H26.9229Z" fill="#393E46"/>
<path d="M18.8461 6.31702H17.0513V9.90676H18.8461V6.31702Z" fill="#393E46"/>
<path d="M25.1284 14.3941V12.5992H17.0515V14.3941H25.1284Z" fill="#393E46"/>
<path d="M26.9229 19.7786V17.9838H17.0511V19.7786H26.9229Z" fill="#393E46"/>
<path d="M26.9229 23.3333V21.5385L0.897211 21.5385V23.3333L26.9229 23.3333Z" fill="#393E46"/>
<path d="M18.8461 14.359H17.0513V19.7436H18.8461V14.359Z" fill="#393E46"/>
<path d="M38.6311 1.47315V13.3261H36.3914L30.5146 6.12966V13.3261H27.8203V1.47315H30.0768L35.9368 8.66957V1.47315H38.6311Z" fill="#FFD369"/>
<path d="M41.2347 4.21626H43.8616V13.3261H41.2347V4.21626ZM42.5481 2.9463C42.0654 2.9463 41.6725 2.80519 41.3694 2.52298C41.0663 2.24077 40.9147 1.89082 40.9147 1.47315C40.9147 1.05547 41.0663 0.705532 41.3694 0.423319C41.6725 0.141106 42.0654 0 42.5481 0C43.0309 0 43.4238 0.135462 43.7269 0.406387C44.03 0.677311 44.1815 1.01597 44.1815 1.42235C44.1815 1.8626 44.03 2.22948 43.7269 2.52298C43.4238 2.80519 43.0309 2.9463 42.5481 2.9463Z" fill="#FFD369"/>
<path d="M52.1428 12.8858C51.8846 13.0777 51.5646 13.2245 51.1829 13.3261C50.8125 13.4164 50.4196 13.4615 50.0042 13.4615C48.9265 13.4615 48.0902 13.185 47.4952 12.6318C46.9114 12.0787 46.6195 11.2659 46.6195 10.1935V6.45138H45.2219V4.41945H46.6195V2.20126H49.2464V4.41945H51.5029V6.45138H49.2464V10.1597C49.2464 10.5435 49.3419 10.8426 49.5327 11.0571C49.7348 11.2603 50.0154 11.3619 50.3747 11.3619C50.79 11.3619 51.1437 11.249 51.4355 11.0232L52.1428 12.8858Z" fill="#FFD369"/>
<path d="M56.1264 5.41848C56.4408 4.97823 56.8617 4.64522 57.3894 4.41945C57.9282 4.19368 58.5457 4.08079 59.2417 4.08079V6.51911C58.9498 6.49653 58.7533 6.48524 58.6523 6.48524C57.9002 6.48524 57.3108 6.69973 56.8842 7.12869C56.4576 7.54636 56.2443 8.17852 56.2443 9.02516V13.3261H53.6174V4.21626H56.1264V5.41848Z" fill="#FFD369"/>
<path d="M65.0322 13.4615C64.078 13.4615 63.2192 13.264 62.4558 12.8689C61.7037 12.4625 61.1143 11.9037 60.6877 11.1925C60.2611 10.4814 60.0478 9.67425 60.0478 8.77117C60.0478 7.86809 60.2611 7.06096 60.6877 6.34978C61.1143 5.63861 61.7037 5.08547 62.4558 4.69037C63.2192 4.28399 64.078 4.08079 65.0322 4.08079C65.9865 4.08079 66.8396 4.28399 67.5918 4.69037C68.3439 5.08547 68.9333 5.63861 69.3599 6.34978C69.7865 7.06096 69.9998 7.86809 69.9998 8.77117C69.9998 9.67425 69.7865 10.4814 69.3599 11.1925C68.9333 11.9037 68.3439 12.4625 67.5918 12.8689C66.8396 13.264 65.9865 13.4615 65.0322 13.4615ZM65.0322 11.2941C65.7058 11.2941 66.2559 11.0684 66.6825 10.6168C67.1203 10.154 67.3392 9.53878 67.3392 8.77117C67.3392 8.00355 67.1203 7.39397 66.6825 6.94243C66.2559 6.4796 65.7058 6.24819 65.0322 6.24819C64.3587 6.24819 63.803 6.4796 63.3652 6.94243C62.9273 7.39397 62.7084 8.00355 62.7084 8.77117C62.7084 9.53878 62.9273 10.154 63.3652 10.6168C63.803 11.0684 64.3587 11.2941 65.0322 11.2941Z" fill="#FFD369"/>
<path d="M34.0661 21.808V23.4595H27.8203V14.5668H33.9163V16.2183H29.6756V18.1493H33.4208V19.75H29.6756V21.808H34.0661Z" fill="#393E46"/>
<path d="M39.1929 16.5232C39.9611 16.5232 40.5796 16.7773 41.0482 17.2854C41.5245 17.7936 41.7626 18.5473 41.7626 19.5467V23.4595H39.965V19.8516C39.965 19.3096 39.8574 18.9073 39.6423 18.6447C39.4272 18.3737 39.1161 18.2382 38.7089 18.2382C38.2556 18.2382 37.8946 18.3949 37.6257 18.7082C37.3568 19.0131 37.2224 19.4705 37.2224 20.0803V23.4595H35.4247V16.6248H37.1417V17.4251C37.3799 17.1372 37.6756 16.917 38.029 16.7645C38.3824 16.6036 38.7704 16.5232 39.1929 16.5232Z" fill="#393E46"/>
<path d="M49.8552 16.6248V22.3161C49.8552 23.5696 49.5595 24.5012 48.9679 25.111C48.3764 25.7208 47.5121 26.0257 46.3751 26.0257C45.7759 26.0257 45.2074 25.9452 44.6696 25.7843C44.1319 25.6234 43.6863 25.3905 43.3329 25.0856L44.0474 23.6627C44.3086 23.8999 44.6389 24.0862 45.0384 24.2217C45.4379 24.3657 45.8374 24.4377 46.2368 24.4377C46.8591 24.4377 47.3162 24.281 47.6081 23.9676C47.9078 23.6627 48.0576 23.1969 48.0576 22.5702V22.278C47.5889 22.8455 46.9359 23.1292 46.0986 23.1292C45.5301 23.1292 45.0077 22.9937 44.5314 22.7226C44.0627 22.4432 43.6901 22.0536 43.4136 21.5539C43.137 21.0542 42.9987 20.4783 42.9987 19.8262C42.9987 19.174 43.137 18.5981 43.4136 18.0985C43.6901 17.5988 44.0627 17.2134 44.5314 16.9424C45.0077 16.6629 45.5301 16.5232 46.0986 16.5232C46.9974 16.5232 47.6811 16.8492 48.1498 17.5014V16.6248H49.8552ZM46.4558 21.5031C46.9321 21.5031 47.3201 21.3506 47.6197 21.0457C47.927 20.7324 48.0806 20.3259 48.0806 19.8262C48.0806 19.3265 47.927 18.9242 47.6197 18.6193C47.3201 18.3059 46.9321 18.1493 46.4558 18.1493C45.9795 18.1493 45.5877 18.3059 45.2804 18.6193C44.9731 18.9242 44.8194 19.3265 44.8194 19.8262C44.8194 20.3259 44.9731 20.7324 45.2804 21.0457C45.5877 21.3506 45.9795 21.5031 46.4558 21.5031Z" fill="#393E46"/>
<path d="M51.5284 16.6248H53.3261V23.4595H51.5284V16.6248ZM52.4272 15.672C52.0969 15.672 51.828 15.5662 51.6206 15.3544C51.4132 15.1427 51.3095 14.8801 51.3095 14.5668C51.3095 14.2534 51.4132 13.9909 51.6206 13.7791C51.828 13.5674 52.0969 13.4615 52.4272 13.4615C52.7576 13.4615 53.0265 13.5632 53.2339 13.7664C53.4413 13.9697 53.545 14.2238 53.545 14.5287C53.545 14.859 53.4413 15.1342 53.2339 15.3544C53.0265 15.5662 52.7576 15.672 52.4272 15.672Z" fill="#393E46"/>
<path d="M58.7627 16.5232C59.5309 16.5232 60.1493 16.7773 60.618 17.2854C61.0943 17.7936 61.3324 18.5473 61.3324 19.5467V23.4595H59.5347V19.8516C59.5347 19.3096 59.4272 18.9073 59.2121 18.6447C58.997 18.3737 58.6859 18.2382 58.2787 18.2382C57.8254 18.2382 57.4644 18.3949 57.1955 18.7082C56.9266 19.0131 56.7921 19.4705 56.7921 20.0803V23.4595H54.9945V16.6248H56.7115V17.4251C56.9496 17.1372 57.2454 16.917 57.5988 16.7645C57.9522 16.6036 58.3401 16.5232 58.7627 16.5232Z" fill="#393E46"/>
<path d="M69.1024 20.0675C69.1024 20.093 69.0908 20.2708 69.0678 20.6011H64.3777C64.4622 21.0246 64.662 21.3591 64.9769 21.6047C65.2919 21.8503 65.6837 21.9731 66.1523 21.9731C66.475 21.9731 66.7592 21.9223 67.0051 21.8207C67.2586 21.7106 67.4929 21.5412 67.708 21.3125L68.6645 22.4559C68.0806 23.1927 67.2279 23.5611 66.1062 23.5611C65.4071 23.5611 64.7887 23.4129 64.2509 23.1165C63.7132 22.8116 63.2983 22.3924 63.0064 21.8588C62.7145 21.3252 62.5685 20.7197 62.5685 20.0421C62.5685 19.3731 62.7106 18.7718 62.9949 18.2382C63.2868 17.6962 63.6825 17.2769 64.1818 16.9805C64.6888 16.6756 65.2535 16.5232 65.8758 16.5232C66.4827 16.5232 67.032 16.6672 67.5236 16.9551C68.0153 17.2431 68.3994 17.6581 68.676 18.2001C68.9602 18.7336 69.1024 19.3561 69.1024 20.0675ZM65.8873 18.0222C65.4801 18.0222 65.1383 18.1493 64.8617 18.4033C64.5851 18.6574 64.4161 19.0047 64.3547 19.4451H67.4084C67.3469 19.0131 67.1779 18.6701 66.9014 18.416C66.6248 18.1535 66.2868 18.0222 65.8873 18.0222Z" fill="#393E46"/>
</svg>
