<svg width="129" height="45" viewBox="0 0 129 45" fill="none" xmlns="http://www.w3.org/2000/svg">
<path d="M5.47592 4.00439H0V5.68652H5.47592V4.00439Z" fill="#FFD369"/>
<path d="M27.431 4.00244H28.8662V28.765H28.3106C28.0773 28.765 27.8536 28.6723 27.6886 28.5073C27.5236 28.3424 27.431 28.1186 27.431 27.8853V4.00244Z" fill="#FFD369"/>
<path d="M9.73529 43.2817H8.30008V18.5179H8.85565C9.08894 18.5179 9.31268 18.6106 9.47765 18.7756C9.64261 18.9405 9.73529 19.1643 9.73529 19.3976V43.2817Z" fill="#FFD369"/>
<path d="M1.81073 5.4751H0V43.3474H1.81073V5.4751Z" fill="#FFD369"/>
<path d="M57.9473 5.50337V4H28.1487V5.50337H57.9473Z" fill="#FFD369"/>
<path d="M28.8521 27.4469L28.6347 28.4681C28.6298 28.4974 28.6137 28.5237 28.5897 28.5414C28.4225 28.6571 27.7872 28.8127 27.6445 28.67L4.5242 5.19346C4.51241 5.18229 4.50302 5.16883 4.4966 5.1539C4.49019 5.13898 4.48688 5.1229 4.48688 5.10666C4.48688 5.09041 4.49019 5.07433 4.4966 5.05941C4.50302 5.04448 4.51241 5.03102 4.5242 5.01985L5.42443 4.02446C5.47458 3.97816 5.67263 4.04118 5.7215 4.09005L28.8186 27.3376C28.8329 27.3516 28.8434 27.3689 28.8492 27.388C28.8551 27.4071 28.8561 27.4274 28.8521 27.4469Z" fill="#FFD369"/>
<path d="M8.30129 19.1597V18.0022C8.29166 17.8708 8.29166 17.7389 8.30129 17.6074C8.47362 17.4878 9.03562 17.9367 9.18094 18.0846L33.1744 41.8916C33.1976 41.9155 33.2106 41.9476 33.2106 41.9809C33.2106 42.0143 33.1976 42.0463 33.1744 42.0703L32.2485 43.0991C32.1957 43.148 31.9913 43.0824 31.9437 43.0323L8.34116 19.2716C8.32545 19.2579 8.31352 19.2405 8.30654 19.2209C8.29955 19.2013 8.29775 19.1802 8.30129 19.1597Z" fill="#FFD369"/>
<path d="M58 13.0023V11.0732H36.5233V13.0023H58Z" fill="#FFD369"/>
<path d="M57.9473 19.2496V17.4067H36.5619V19.2496H57.9473Z" fill="#FFD369"/>
<path d="M38.3032 11.6406H36.5619V18.6251H38.3032V11.6406Z" fill="#FFD369"/>
<path d="M52.6038 26.8466V24.9355H36.5619V26.8466H52.6038Z" fill="#FFD369"/>
<path d="M57.9473 36.2872V34.4443H36.5619V36.2872H57.9473Z" fill="#FFD369"/>
<path d="M58 43.7386V41.8096H0V43.7386H58Z" fill="#FFD369"/>
<path d="M38.3032 25.5117H36.5619L36.5619 36.2872L38.3032 36.2874V25.5117Z" fill="#FFD369"/>
<path d="M80.3999 2.20006V19.0001H77.2079L68.8319 8.80006V19.0001H64.9919V2.20006H68.2079L76.5599 12.4001V2.20006H80.3999Z" fill="#EEEEEE"/>
<path d="M84.1108 6.08806H87.8548V19.0001H84.1108V6.08806ZM85.9828 4.28806C85.2948 4.28806 84.7348 4.08806 84.3028 3.68806C83.8708 3.28806 83.6548 2.79206 83.6548 2.20006C83.6548 1.60806 83.8708 1.11206 84.3028 0.712061C84.7348 0.312061 85.2948 0.112061 85.9828 0.112061C86.6708 0.112061 87.2308 0.304061 87.6628 0.688062C88.0948 1.07206 88.3108 1.55206 88.3108 2.12806C88.3108 2.75206 88.0948 3.27206 87.6628 3.68806C87.2308 4.08806 86.6708 4.28806 85.9828 4.28806Z" fill="#EEEEEE"/>
<path d="M99.6575 18.3761C99.2895 18.6481 98.8335 18.8561 98.2895 19.0001C97.7615 19.1281 97.2015 19.1921 96.6095 19.1921C95.0735 19.1921 93.8815 18.8001 93.0335 18.0161C92.2015 17.2321 91.7855 16.0801 91.7855 14.5601V9.25606H89.7935V6.37606H91.7855V3.23206H95.5295V6.37606H98.7455V9.25606H95.5295V14.5121C95.5295 15.0561 95.6655 15.4801 95.9375 15.7841C96.2255 16.0721 96.6255 16.2161 97.1375 16.2161C97.7295 16.2161 98.2335 16.0561 98.6495 15.7361L99.6575 18.3761Z" fill="#EEEEEE"/>
<path d="M105.335 7.79206C105.783 7.16806 106.383 6.69606 107.135 6.37606C107.903 6.05606 108.783 5.89606 109.775 5.89606V9.35206C109.359 9.32006 109.079 9.30406 108.935 9.30406C107.863 9.30406 107.023 9.60806 106.415 10.2161C105.807 10.8081 105.503 11.7041 105.503 12.9041V19.0001H101.759V6.08806H105.335V7.79206Z" fill="#EEEEEE"/>
<path d="M118.028 19.1921C116.668 19.1921 115.444 18.9121 114.356 18.3521C113.284 17.7761 112.444 16.9841 111.836 15.9761C111.228 14.9681 110.924 13.8241 110.924 12.5441C110.924 11.2641 111.228 10.1201 111.836 9.11206C112.444 8.10406 113.284 7.32006 114.356 6.76006C115.444 6.18406 116.668 5.89606 118.028 5.89606C119.388 5.89606 120.604 6.18406 121.676 6.76006C122.748 7.32006 123.588 8.10406 124.196 9.11206C124.804 10.1201 125.108 11.2641 125.108 12.5441C125.108 13.8241 124.804 14.9681 124.196 15.9761C123.588 16.9841 122.748 17.7761 121.676 18.3521C120.604 18.9121 119.388 19.1921 118.028 19.1921ZM118.028 16.1201C118.988 16.1201 119.772 15.8001 120.38 15.1601C121.004 14.5041 121.316 13.6321 121.316 12.5441C121.316 11.4561 121.004 10.5921 120.38 9.95206C119.772 9.29606 118.988 8.96806 118.028 8.96806C117.068 8.96806 116.276 9.29606 115.652 9.95206C115.028 10.5921 114.716 11.4561 114.716 12.5441C114.716 13.6321 115.028 14.5041 115.652 15.1601C116.276 15.8001 117.068 16.1201 118.028 16.1201Z" fill="#EEEEEE"/>
<path d="M74.2499 38.66V41H64.4939V28.4H74.0159V30.74H67.3919V33.476H73.2419V35.744H67.3919V38.66H74.2499Z" fill="#EEEEEE"/>
<path d="M82.2581 31.172C83.4581 31.172 84.4241 31.532 85.1561 32.252C85.9001 32.972 86.2721 34.04 86.2721 35.456V41H83.4641V35.888C83.4641 35.12 83.2961 34.55 82.9601 34.178C82.6241 33.794 82.1381 33.602 81.5021 33.602C80.7941 33.602 80.2301 33.824 79.8101 34.268C79.3901 34.7 79.1801 35.348 79.1801 36.212V41H76.3721V31.316H79.0541V32.45C79.4261 32.042 79.8881 31.73 80.4401 31.514C80.9921 31.286 81.5981 31.172 82.2581 31.172Z" fill="#EEEEEE"/>
<path d="M98.9128 31.316V39.38C98.9128 41.156 98.4508 42.476 97.5268 43.34C96.6028 44.204 95.2529 44.636 93.4769 44.636C92.5409 44.636 91.6528 44.522 90.8128 44.294C89.9728 44.066 89.2768 43.736 88.7248 43.304L89.8408 41.288C90.2488 41.624 90.7648 41.888 91.3888 42.08C92.0128 42.284 92.6368 42.386 93.2608 42.386C94.2328 42.386 94.9468 42.164 95.4028 41.72C95.8708 41.288 96.1049 40.628 96.1049 39.74V39.326C95.3729 40.13 94.3528 40.532 93.0448 40.532C92.1568 40.532 91.3408 40.34 90.5968 39.956C89.8648 39.56 89.2828 39.008 88.8508 38.3C88.4188 37.592 88.2029 36.776 88.2029 35.852C88.2029 34.928 88.4188 34.112 88.8508 33.404C89.2828 32.696 89.8648 32.15 90.5968 31.766C91.3408 31.37 92.1568 31.172 93.0448 31.172C94.4488 31.172 95.5168 31.634 96.2488 32.558V31.316H98.9128ZM93.6028 38.228C94.3469 38.228 94.9529 38.012 95.4209 37.58C95.9009 37.136 96.1409 36.56 96.1409 35.852C96.1409 35.144 95.9009 34.574 95.4209 34.142C94.9529 33.698 94.3469 33.476 93.6028 33.476C92.8588 33.476 92.2468 33.698 91.7668 34.142C91.2868 34.574 91.0469 35.144 91.0469 35.852C91.0469 36.56 91.2868 37.136 91.7668 37.58C92.2468 38.012 92.8588 38.228 93.6028 38.228Z" fill="#EEEEEE"/>
<path d="M101.526 31.316H104.334V41H101.526V31.316ZM102.93 29.966C102.414 29.966 101.994 29.816 101.67 29.516C101.346 29.216 101.184 28.844 101.184 28.4C101.184 27.956 101.346 27.584 101.67 27.284C101.994 26.984 102.414 26.834 102.93 26.834C103.446 26.834 103.866 26.978 104.19 27.266C104.514 27.554 104.676 27.914 104.676 28.346C104.676 28.814 104.514 29.204 104.19 29.516C103.866 29.816 103.446 29.966 102.93 29.966Z" fill="#EEEEEE"/>
<path d="M112.826 31.172C114.026 31.172 114.992 31.532 115.724 32.252C116.468 32.972 116.84 34.04 116.84 35.456V41H114.032V35.888C114.032 35.12 113.864 34.55 113.528 34.178C113.192 33.794 112.706 33.602 112.07 33.602C111.362 33.602 110.798 33.824 110.378 34.268C109.958 34.7 109.748 35.348 109.748 36.212V41H106.94V31.316H109.622V32.45C109.994 32.042 110.456 31.73 111.008 31.514C111.56 31.286 112.166 31.172 112.826 31.172Z" fill="#EEEEEE"/>
<path d="M128.977 36.194C128.977 36.23 128.959 36.482 128.923 36.95H121.597C121.729 37.55 122.041 38.024 122.533 38.372C123.025 38.72 123.637 38.894 124.369 38.894C124.873 38.894 125.317 38.822 125.701 38.678C126.097 38.522 126.463 38.282 126.799 37.958L128.293 39.578C127.381 40.622 126.049 41.144 124.297 41.144C123.205 41.144 122.239 40.934 121.399 40.514C120.559 40.082 119.911 39.488 119.455 38.732C118.999 37.976 118.771 37.118 118.771 36.158C118.771 35.21 118.993 34.358 119.437 33.602C119.893 32.834 120.511 32.24 121.291 31.82C122.083 31.388 122.965 31.172 123.937 31.172C124.885 31.172 125.743 31.376 126.511 31.784C127.279 32.192 127.879 32.78 128.311 33.548C128.755 34.304 128.977 35.186 128.977 36.194ZM123.955 33.296C123.319 33.296 122.785 33.476 122.353 33.836C121.921 34.196 121.657 34.688 121.561 35.312H126.331C126.235 34.7 125.971 34.214 125.539 33.854C125.107 33.482 124.579 33.296 123.955 33.296Z" fill="#EEEEEE"/>
</svg>
