<svg width="37" height="37" viewBox="0 0 37 37" fill="none" xmlns="http://www.w3.org/2000/svg">
<path d="M13.8752 33.9167C14.7266 33.9167 15.4168 33.2264 15.4168 32.375C15.4168 31.5235 14.7266 30.8333 13.8752 30.8333C13.0237 30.8333 12.3335 31.5235 12.3335 32.375C12.3335 33.2264 13.0237 33.9167 13.8752 33.9167Z" stroke="black" stroke-width="2" stroke-linecap="round" stroke-linejoin="round"/>
<path d="M30.8332 33.9167C31.6846 33.9167 32.3748 33.2264 32.3748 32.375C32.3748 31.5235 31.6846 30.8333 30.8332 30.8333C29.9817 30.8333 29.2915 31.5235 29.2915 32.375C29.2915 33.2264 29.9817 33.9167 30.8332 33.9167Z" stroke="black" stroke-width="2" stroke-linecap="round" stroke-linejoin="round"/>
<path d="M1.5415 1.54169H7.70817L11.8398 22.1846C11.9808 22.8944 12.3669 23.532 12.9306 23.9857C13.4943 24.4395 14.1997 24.6806 14.9232 24.6667H29.9082C30.6317 24.6806 31.337 24.4395 31.9007 23.9857C32.4644 23.532 32.8505 22.8944 32.9915 22.1846L35.4582 9.25002H9.24984" stroke="black" stroke-width="2" stroke-linecap="round" stroke-linejoin="round"/>
</svg>
