<svg width="33" height="34" viewBox="0 0 33 34" fill="none" xmlns="http://www.w3.org/2000/svg">
<path d="M16.5 21.25C18.7782 21.25 20.625 19.3472 20.625 17C20.625 14.6528 18.7782 12.75 16.5 12.75C14.2218 12.75 12.375 14.6528 12.375 17C12.375 19.3472 14.2218 21.25 16.5 21.25Z" stroke="black" stroke-width="2" stroke-linecap="round" stroke-linejoin="round"/>
<path d="M26.675 21.25C26.492 21.6772 26.4374 22.1512 26.5182 22.6108C26.5991 23.0704 26.8118 23.4944 27.1287 23.8283L27.2113 23.9133C27.4669 24.1764 27.6698 24.4889 27.8082 24.8329C27.9466 25.1768 28.0178 25.5455 28.0178 25.9179C28.0178 26.2902 27.9466 26.6589 27.8082 27.0029C27.6698 27.3468 27.4669 27.6593 27.2113 27.9225C26.9559 28.1859 26.6526 28.3949 26.3187 28.5375C25.9849 28.68 25.627 28.7534 25.2656 28.7534C24.9042 28.7534 24.5464 28.68 24.2125 28.5375C23.8787 28.3949 23.5754 28.1859 23.32 27.9225L23.2375 27.8375C22.9134 27.5109 22.5019 27.2918 22.0558 27.2085C21.6098 27.1251 21.1497 27.1814 20.735 27.37C20.3283 27.5495 19.9815 27.8477 19.7372 28.2278C19.4929 28.6079 19.3618 29.0533 19.36 29.5091V29.75C19.36 30.5014 19.0703 31.2221 18.5545 31.7534C18.0388 32.2848 17.3393 32.5833 16.61 32.5833C15.8807 32.5833 15.1812 32.2848 14.6655 31.7534C14.1497 31.2221 13.86 30.5014 13.86 29.75V29.6225C13.8494 29.1535 13.702 28.6988 13.4372 28.3173C13.1724 27.9358 12.8023 27.6452 12.375 27.4833C11.9603 27.2947 11.5002 27.2385 11.0542 27.3218C10.6081 27.4051 10.1966 27.6242 9.8725 27.9508L9.79 28.0358C9.5346 28.2992 9.23131 28.5082 8.89746 28.6508C8.56362 28.7934 8.20577 28.8668 7.84437 28.8668C7.48298 28.8668 7.12513 28.7934 6.79129 28.6508C6.45744 28.5082 6.15415 28.2992 5.89875 28.0358C5.64306 27.7727 5.44023 27.4602 5.30184 27.1162C5.16344 26.7722 5.09221 26.4036 5.09221 26.0312C5.09221 25.6589 5.16344 25.2902 5.30184 24.9462C5.44023 24.6022 5.64306 24.2898 5.89875 24.0266L5.98125 23.9416C6.29824 23.6077 6.51088 23.1837 6.59176 22.7241C6.67263 22.2646 6.61803 21.7906 6.435 21.3633C6.2607 20.9443 5.97129 20.5869 5.60239 20.3352C5.23349 20.0835 4.80121 19.9484 4.35875 19.9466H4.125C3.39565 19.9466 2.69618 19.6481 2.18046 19.1168C1.66473 18.5854 1.375 17.8647 1.375 17.1133C1.375 16.3618 1.66473 15.6412 2.18046 15.1098C2.69618 14.5785 3.39565 14.28 4.125 14.28H4.24875C4.70387 14.269 5.14526 14.1172 5.51554 13.8443C5.88582 13.5715 6.16786 13.1902 6.325 12.75C6.50803 12.3227 6.56263 11.8487 6.48176 11.3891C6.40088 10.9296 6.18824 10.5055 5.87125 10.1716L5.78875 10.0866C5.53306 9.82349 5.33023 9.511 5.19184 9.16704C5.05344 8.82308 4.98221 8.45439 4.98221 8.08204C4.98221 7.7097 5.05344 7.34101 5.19184 6.99704C5.33023 6.65308 5.53306 6.3406 5.78875 6.07746C6.04415 5.81403 6.34744 5.60504 6.68129 5.46246C7.01513 5.31987 7.37298 5.24648 7.73438 5.24648C8.09577 5.24648 8.45362 5.31987 8.78746 5.46246C9.12131 5.60504 9.4246 5.81403 9.68 6.07746L9.7625 6.16246C10.0866 6.48905 10.4981 6.70814 10.9442 6.79147C11.3902 6.87479 11.8503 6.81854 12.265 6.62996H12.375C12.7817 6.45038 13.1285 6.1522 13.3728 5.77212C13.6171 5.39204 13.7482 4.94666 13.75 4.49079V4.24996C13.75 3.49851 14.0397 2.77784 14.5555 2.24649C15.0712 1.71514 15.7707 1.41663 16.5 1.41663C17.2293 1.41663 17.9288 1.71514 18.4445 2.24649C18.9603 2.77784 19.25 3.49851 19.25 4.24996V4.37746C19.2518 4.83332 19.3829 5.27871 19.6272 5.65879C19.8715 6.03886 20.2183 6.33704 20.625 6.51663C21.0397 6.70521 21.4998 6.76146 21.9458 6.67813C22.3919 6.59481 22.8034 6.37572 23.1275 6.04913L23.21 5.96413C23.4654 5.70069 23.7687 5.49171 24.1025 5.34912C24.4364 5.20654 24.7942 5.13315 25.1556 5.13315C25.517 5.13315 25.8749 5.20654 26.2087 5.34912C26.5426 5.49171 26.8458 5.70069 27.1012 5.96413C27.3569 6.22727 27.5598 6.53975 27.6982 6.88371C27.8366 7.22767 27.9078 7.59637 27.9078 7.96871C27.9078 8.34105 27.8366 8.70975 27.6982 9.05371C27.5598 9.39767 27.3569 9.71015 27.1012 9.97329L27.0187 10.0583C26.7018 10.3922 26.4891 10.8162 26.4082 11.2758C26.3274 11.7354 26.382 12.2093 26.565 12.6366V12.75C26.7393 13.169 27.0287 13.5263 27.3976 13.778C27.7665 14.0297 28.1988 14.1648 28.6412 14.1666H28.875C29.6043 14.1666 30.3038 14.4651 30.8195 14.9965C31.3353 15.5278 31.625 16.2485 31.625 17C31.625 17.7514 31.3353 18.4721 30.8195 19.0034C30.3038 19.5348 29.6043 19.8333 28.875 19.8333H28.7512C28.3088 19.8351 27.8765 19.9702 27.5076 20.2219C27.1387 20.4736 26.8493 20.831 26.675 21.25V21.25Z" stroke="black" stroke-width="2" stroke-linecap="round" stroke-linejoin="round"/>
</svg>
