<svg width="18" height="15" viewBox="0 0 18 15" fill="none" xmlns="http://www.w3.org/2000/svg">
<path d="M2.5106 1.00144H1V1.55173H2.5106V1.00144Z" fill="#FFD369"/>
<path d="M8.56716 1.0008H8.96308V9.1016H8.80982C8.74547 9.1016 8.68375 9.07128 8.63824 9.01732C8.59273 8.96335 8.56716 8.89016 8.56716 8.81384V1.0008Z" fill="#FFD369"/>
<path d="M3.6856 13.8506H3.28968V5.74939H3.44294C3.50729 5.74939 3.56902 5.77971 3.61452 5.83367C3.66003 5.88764 3.6856 5.96084 3.6856 6.03716V13.8506Z" fill="#FFD369"/>
<path d="M1.49951 1.48256H1V13.8721H1.49951V1.48256Z" fill="#FFD369"/>
<path d="M16.9855 1.49181V1H8.76516V1.49181H16.9855Z" fill="#FFD369"/>
<path d="M8.95919 8.67043L8.89923 9.00447C8.89788 9.01408 8.89343 9.02268 8.88682 9.02845C8.8407 9.06632 8.66544 9.11722 8.62606 9.07052L2.24806 1.39043C2.2448 1.38677 2.24221 1.38237 2.24044 1.37749C2.23867 1.3726 2.23776 1.36735 2.23776 1.36203C2.23776 1.35672 2.23867 1.35146 2.24044 1.34657C2.24221 1.34169 2.2448 1.33729 2.24806 1.33363L2.49639 1.008C2.51023 0.992856 2.56486 1.01347 2.57834 1.02946L8.94996 8.63467C8.9539 8.63924 8.9568 8.64491 8.95841 8.65116C8.96002 8.6574 8.96029 8.66403 8.95919 8.67043Z" fill="#FFD369"/>
<path d="M3.29001 5.95933V5.58069C3.28735 5.5377 3.28735 5.49453 3.29001 5.45153C3.33755 5.41241 3.49258 5.55924 3.53267 5.60762L10.1516 13.3958C10.158 13.4037 10.1615 13.4142 10.1615 13.4251C10.1615 13.436 10.158 13.4465 10.1516 13.4543L9.89613 13.7909C9.88159 13.8069 9.82518 13.7854 9.81205 13.769L3.30101 5.99593C3.29667 5.99147 3.29338 5.98576 3.29146 5.97935C3.28953 5.97293 3.28903 5.96604 3.29001 5.95933Z" fill="#FFD369"/>
<path d="M17 3.94501V3.31394H11.0754V3.94501H17Z" fill="#FFD369"/>
<path d="M16.9855 5.98876V5.38588H11.086V5.98876H16.9855Z" fill="#FFD369"/>
<path d="M11.5664 3.49947H11.086V5.78436H11.5664V3.49947Z" fill="#FFD369"/>
<path d="M15.5114 8.47395V7.84877H11.086V8.47395H15.5114Z" fill="#FFD369"/>
<path d="M16.9855 11.5624V10.9596H11.086V11.5624H16.9855Z" fill="#FFD369"/>
<path d="M17 14V13.3689H1V14H17Z" fill="#FFD369"/>
<path d="M11.5664 8.03726H11.086L11.086 11.5624L11.5664 11.5624V8.03726Z" fill="#FFD369"/>
<path d="M11.086 11.5624H16.9855V10.9596H11.086V11.5624ZM11.086 11.5624L11.5664 11.5624V8.03726H11.086L11.086 11.5624ZM1 1.00144H2.5106V1.55173H1V1.00144ZM8.56716 1.0008H8.96308V9.1016H8.80982C8.74547 9.1016 8.68375 9.07128 8.63824 9.01732C8.59273 8.96335 8.56716 8.89016 8.56716 8.81384V1.0008ZM3.6856 13.8506H3.28968V5.74939H3.44294C3.50729 5.74939 3.56902 5.77971 3.61452 5.83367C3.66003 5.88764 3.6856 5.96084 3.6856 6.03716V13.8506ZM1 1.48256H1.49951V13.8721H1V1.48256ZM16.9855 1V1.49181H8.76516V1H16.9855ZM8.95919 8.67043L8.89923 9.00447C8.89788 9.01408 8.89343 9.02268 8.88682 9.02845C8.8407 9.06632 8.66544 9.11722 8.62606 9.07052L2.24806 1.39043C2.2448 1.38677 2.24221 1.38237 2.24044 1.37749C2.23867 1.3726 2.23776 1.36735 2.23776 1.36203C2.23776 1.35672 2.23867 1.35146 2.24044 1.34657C2.24221 1.34169 2.2448 1.33729 2.24806 1.33363L2.49639 1.008C2.51023 0.992856 2.56486 1.01347 2.57834 1.02946L8.94996 8.63467C8.9539 8.63924 8.9568 8.64491 8.95841 8.65116C8.96002 8.6574 8.96029 8.66403 8.95919 8.67043ZM3.29001 5.95933V5.58069C3.28735 5.5377 3.28735 5.49453 3.29001 5.45153C3.33755 5.41241 3.49258 5.55924 3.53267 5.60762L10.1516 13.3958C10.158 13.4037 10.1615 13.4142 10.1615 13.4251C10.1615 13.436 10.158 13.4465 10.1516 13.4543L9.89613 13.7909C9.88159 13.8069 9.82518 13.7854 9.81205 13.769L3.30101 5.99593C3.29667 5.99147 3.29338 5.98576 3.29146 5.97935C3.28953 5.97293 3.28903 5.96604 3.29001 5.95933ZM17 3.31394V3.94501H11.0754V3.31394H17ZM16.9855 5.38588V5.98876H11.086V5.38588H16.9855ZM11.086 3.49947H11.5664V5.78436H11.086V3.49947ZM15.5114 7.84877V8.47395H11.086V7.84877H15.5114ZM17 13.3689V14H1V13.3689H17Z" stroke="#FFD369" stroke-width="0.4"/>
</svg>
