<svg width="93" height="93" viewBox="0 0 93 93" fill="none" xmlns="http://www.w3.org/2000/svg">
<path d="M70.1042 22.8959H70.1471M25.0417 3.58337H67.9584C79.8095 3.58337 89.4167 13.1906 89.4167 25.0417V67.9584C89.4167 79.8095 79.8095 89.4167 67.9584 89.4167H25.0417C13.1906 89.4167 3.58337 79.8095 3.58337 67.9584V25.0417C3.58337 13.1906 13.1906 3.58337 25.0417 3.58337ZM63.6668 43.7965C64.1964 47.3682 63.5863 51.016 61.9233 54.221C60.2603 57.426 57.629 60.025 54.4037 61.6484C51.1785 63.2718 47.5234 63.8368 43.9585 63.2632C40.3936 62.6895 37.1003 61.0064 34.5471 58.4532C31.9939 55.9 30.3108 52.6067 29.7371 49.0418C29.1635 45.4769 29.7285 41.8218 31.3519 38.5966C32.9753 35.3713 35.5743 32.74 38.7793 31.077C41.9843 29.414 45.6321 28.8039 49.2039 29.3336C52.8471 29.8738 56.2201 31.5715 58.8245 34.1759C61.4288 36.7802 63.1265 40.1532 63.6668 43.7965Z" stroke="white" stroke-width="6" stroke-linecap="round" stroke-linejoin="round"/>
</svg>
