<svg width="109" height="90" viewBox="0 0 109 90" fill="none" xmlns="http://www.w3.org/2000/svg">
<path d="M105.375 3.87518C100.946 6.99926 96.0423 9.38869 90.8525 10.9514C88.0671 7.74867 84.3652 5.47863 80.2475 4.44834C76.1299 3.41805 71.7952 3.67721 67.8296 5.19078C63.8641 6.70435 60.459 9.39929 58.075 12.9111C55.691 16.423 54.4431 20.5822 54.5 24.8264V29.4514C46.3722 29.6622 38.3184 27.8596 31.0559 24.2041C23.7934 20.5487 17.5477 15.1539 12.875 8.50018C12.875 8.50018 -5.625 50.1252 36 68.6252C26.4749 75.0908 15.1281 78.3327 3.625 77.8752C45.25 101 96.125 77.8752 96.125 24.6877C96.1207 23.3994 95.9969 22.1143 95.755 20.8489C100.475 16.1938 103.806 10.3165 105.375 3.87518V3.87518Z" stroke="white" stroke-width="6" stroke-linecap="round" stroke-linejoin="round"/>
</svg>
