<svg width="106" height="76" viewBox="0 0 106 76" fill="none" xmlns="http://www.w3.org/2000/svg">
<path d="M100.43 13.89C99.8953 11.7543 98.8067 9.79757 97.2738 8.21733C95.741 6.63708 93.8183 5.48933 91.6999 4.89C83.9599 3 52.9999 3 52.9999 3C52.9999 3 22.0399 3 14.2999 5.07C12.1815 5.66933 10.2588 6.81708 8.72595 8.39733C7.19311 9.97757 6.10444 11.9343 5.56989 14.07C4.15335 21.925 3.46045 29.8934 3.49989 37.875C3.44939 45.9167 4.14234 53.9459 5.56989 61.86C6.1592 63.9293 7.27227 65.8116 8.80153 67.3251C10.3308 68.8387 12.2246 69.9322 14.2999 70.5C22.0399 72.57 52.9999 72.57 52.9999 72.57C52.9999 72.57 83.9599 72.57 91.6999 70.5C93.8183 69.9007 95.741 68.7529 97.2738 67.1727C98.8067 65.5924 99.8953 63.6356 100.43 61.5C101.836 53.7041 102.528 45.7965 102.5 37.875C102.55 29.8333 101.857 21.8041 100.43 13.89Z" stroke="white" stroke-width="6" stroke-linecap="round" stroke-linejoin="round"/>
<path d="M42.875 52.5899L68.75 37.8749L42.875 23.1599V52.5899Z" stroke="white" stroke-width="6" stroke-linecap="round" stroke-linejoin="round"/>
</svg>
